<svg width="97" height="91" viewBox="0 0 97 91" fill="none" xmlns="http://www.w3.org/2000/svg">
<path d="M96.6272 36.2063C96.4495 36.0235 96.2415 35.9012 96.0208 35.8499C95.7884 35.7783 95.5511 35.7334 95.315 35.6834L92.2557 35.0923C91.9469 35.0154 91.632 34.9931 91.3188 35.0257C91.1617 35.0429 91.0088 35.1019 90.8688 35.1991C90.7289 35.2963 90.6048 35.4298 90.5037 35.5918C90.4125 35.7426 90.3625 35.9306 90.362 36.1247C90.3791 36.32 90.4265 36.5083 90.5012 36.6775C90.5308 36.7566 90.5561 36.8384 90.577 36.9223C90.6063 37.1106 90.6428 37.2968 90.6863 37.4801C90.6999 37.5198 90.7174 37.5568 90.7385 37.59C90.7391 37.5994 90.7391 37.6089 90.7385 37.6183C90.705 37.8481 90.8131 38.0879 90.7646 38.3094C90.7224 38.4992 90.5845 38.6141 90.4975 38.7723C90.4395 38.8845 90.4073 39.0171 90.4051 39.1536C90.4029 39.2901 90.4307 39.4245 90.485 39.5399C90.5782 39.7331 90.7472 39.8646 90.7957 40.0861C90.8591 40.3775 90.6876 40.6589 90.5348 40.8837C90.2536 41.2976 89.9937 41.7365 89.7569 42.1976C89.6903 42.3109 89.6475 42.446 89.6326 42.5889C89.619 42.8786 89.8265 43.1334 89.7904 43.4214C89.7619 43.6479 89.5966 43.7861 89.4537 43.921C88.9256 44.3872 88.5019 45.1366 88.4596 45.9841C88.324 44.6356 87.9071 43.3658 87.2568 42.3208C87.0791 42.0344 86.884 41.7463 86.8107 41.3833C86.7834 41.2384 86.7784 41.0836 86.7411 40.9437C86.6169 40.5024 86.2217 40.3126 86.049 39.9063C85.9248 39.6199 85.9247 39.2519 85.7707 39.0004C85.6166 38.749 85.3743 38.6924 85.2413 38.4493C85.1749 38.2846 85.1184 38.1131 85.0723 37.9364C85.0166 37.7923 84.9381 37.6662 84.8425 37.5667C84.8241 37.5471 84.805 37.5287 84.7853 37.5118C84.8059 37.487 84.8225 37.4567 84.8338 37.4229C84.8452 37.389 84.8511 37.3524 84.8512 37.3153C84.8512 37.1204 84.707 36.9922 84.5815 36.8956C84.42 36.7724 84.2622 36.6392 84.1081 36.501C84.2761 36.3961 84.4218 36.2364 84.5318 36.0364C84.6697 35.7382 84.7268 35.3853 84.6933 35.0373C84.6849 34.7564 84.6066 34.4874 84.4709 34.273C84.3926 34.1614 84.2945 34.0815 84.2125 33.9766C84 33.6985 83.9279 33.2872 83.8397 32.9076C83.7229 32.408 83.5402 31.8835 83.1997 31.6187C83.0357 31.4905 82.8444 31.4306 82.6841 31.2957C82.5238 31.1608 82.3896 30.906 82.4455 30.6613C82.4828 30.4947 82.5983 30.3798 82.6766 30.2383C82.7701 30.0553 82.8059 29.8303 82.7764 29.6121C82.7468 29.3938 82.6543 29.2 82.5188 29.0727C82.4269 28.9944 82.3138 28.9261 82.2951 28.7829C82.2232 28.7579 82.158 28.7062 82.107 28.6337C82.056 28.5613 82.0213 28.471 82.0069 28.3733C81.9789 28.1775 81.9789 27.9763 82.0069 27.7805C82.0392 27.4708 82.0711 27.1622 82.1025 26.8547C82.1573 26.8852 82.216 26.9009 82.2753 26.9009C82.3345 26.9009 82.3932 26.8852 82.448 26.8547C82.5555 27.0885 82.6804 27.3072 82.8208 27.5074C83.1991 28.1062 83.4938 28.7916 83.6906 29.5306C83.7614 29.797 83.8335 30.0951 84.0174 30.2366C84.0807 30.2849 84.1528 30.3099 84.2149 30.3615C84.2916 30.4331 84.3573 30.5235 84.4088 30.628C84.5579 30.8927 84.707 31.1558 84.8549 31.4206L84.8623 31.4605C84.8664 31.484 84.8731 31.5064 84.8822 31.5271C84.9097 31.5687 84.9479 31.5948 84.9891 31.6004C85.4464 31.742 85.9595 31.8718 86.3559 31.5371C86.7138 31.2374 86.8704 30.6446 87.1736 30.2483C87.3885 29.9669 87.693 29.7487 87.7538 29.3524C87.6813 29.3224 87.61 29.2874 87.5401 29.2475C87.6022 29.1643 87.6644 29.0677 87.7489 28.9578C87.8716 28.7967 87.9823 28.6199 88.0794 28.4299C88.1843 28.1955 88.2677 27.9451 88.3279 27.6839C88.5673 26.7692 88.8076 25.8539 89.0486 24.9381C89.1629 24.5051 89.2773 24.0688 89.4214 23.6476C89.5705 23.1913 89.7469 22.7534 89.9097 22.3054C90.3298 21.1405 90.654 19.9177 90.8765 18.6587C90.9159 18.4869 90.929 18.3063 90.915 18.1275C90.8802 17.8395 90.7174 17.613 90.5621 17.4082C90.4059 17.1816 90.2279 16.9839 90.0328 16.8204C89.9348 16.7387 89.8256 16.684 89.7117 16.6594C89.5978 16.6348 89.4814 16.6409 89.3692 16.6772C89.0511 16.8021 88.851 17.2383 88.7777 17.6763C88.7044 18.1142 88.7318 18.5655 88.7007 19.0084C88.656 19.6495 88.4919 20.2689 88.4522 20.9117C88.431 21.283 88.4522 21.6594 88.4186 22.0307C88.3575 22.5167 88.2312 22.9838 88.0458 23.4094C87.6429 24.4246 87.0973 25.3259 86.4392 26.0637C86.3634 26.1486 86.2851 26.2302 86.2105 26.3218C86.2105 26.2502 86.2192 26.177 86.2267 26.1054C86.1726 26.1242 86.1198 26.1493 86.0689 26.1803C86.0752 26.0962 86.0688 26.0113 86.0502 25.9305C85.9508 25.5325 85.5085 25.431 85.429 25.0263C85.4157 24.9263 85.4086 24.8249 85.4078 24.7233C85.3817 24.3686 85.2016 24.0689 85.1394 23.7242C85.0823 23.4061 85.1258 23.0581 85.0152 22.7634C84.9209 22.5791 84.8099 22.4113 84.6846 22.2638C84.5353 22.0353 84.4277 21.7634 84.3703 21.4695C84.3541 21.3879 84.3392 21.303 84.3218 21.2214C84.3407 21.0366 84.3253 20.8485 84.2771 20.6736C84.164 20.2972 83.872 20.0558 83.7664 19.6745C83.6844 19.3781 83.7204 19.0084 83.5651 18.7786C83.4825 18.6688 83.3815 18.5872 83.2706 18.5405C82.7019 18.2437 82.1051 18.0548 81.4974 17.9793C81.1569 17.9377 80.7817 17.9144 80.5381 17.593C80.2536 17.22 80.2399 16.5489 79.9069 16.2609C79.6136 16.0061 79.1986 16.1943 78.9712 16.5523C78.937 16.6049 78.9055 16.6606 78.8768 16.7188C78.8353 16.4956 78.8264 16.2638 78.8507 16.0361C78.8507 15.9795 78.8594 15.9212 78.8631 15.8696C79.4242 15.6239 79.9016 15.1186 80.2101 14.4442C80.2101 14.4442 80.2101 14.4442 80.2101 14.4542L80.225 14.5058C80.261 14.6273 80.3182 14.7439 80.4027 14.7572C80.4589 14.7563 80.5132 14.7299 80.5568 14.6823C80.6317 14.6125 80.7009 14.5321 80.763 14.4425C80.7945 14.3959 80.8243 14.3476 80.8525 14.2976C80.9098 14.1937 80.9589 14.0821 80.9991 13.9646C81.0608 13.7879 81.1027 13.5999 81.1234 13.4068C81.1457 13.2136 81.1482 13.0155 81.1731 12.8223C81.1963 12.6728 81.2266 12.5254 81.2638 12.381C81.2762 12.3327 81.2886 12.2844 81.2998 12.2362C81.311 12.1879 81.3272 12.1229 81.3396 12.0696C81.4174 11.7272 81.4592 11.3719 81.4639 11.0139C81.4639 10.954 81.4639 10.894 81.4639 10.8341C81.4593 10.6005 81.4201 10.3705 81.3484 10.1574C81.2767 9.94442 81.174 9.75271 81.0463 9.59354C80.8326 9.35875 80.5493 9.2605 80.3927 8.94245C80.2908 8.72931 80.2685 8.45456 80.2088 8.20479C80.1444 7.90587 80.0187 7.63713 79.8461 7.42905C79.6735 7.22097 79.4608 7.08186 79.2322 7.02751C78.9569 6.98705 78.6804 7.0889 78.4593 7.31226V7.31226L78.4419 7.33057C78.3187 7.45666 78.2141 7.61254 78.1337 7.79016C77.9695 7.72956 77.8192 7.6151 77.6963 7.45713C77.5721 7.30227 77.4764 7.10744 77.3509 6.95758C77.2336 6.81364 77.0896 6.71453 76.934 6.67059C76.7784 6.62666 76.6168 6.63951 76.4662 6.7078C76.311 6.7911 76.1727 6.92252 76.0628 7.09127C75.9529 7.26002 75.8743 7.4613 75.8337 7.67859C75.7653 8.02162 75.7778 8.41626 75.6349 8.70267C75.5243 8.9258 75.3429 9.0357 75.2161 9.23885C75.1374 9.36749 75.0836 9.52023 75.0595 9.68346V9.68346C75.0445 9.77474 75.0374 9.86806 75.0384 9.96154V9.96154C75.0384 10.0032 75.0384 10.0448 75.0459 10.0848C75.0459 10.0848 75.0459 10.0981 75.0459 10.1047C75.0503 10.1504 75.0573 10.1955 75.067 10.2396V10.2396C75.1023 10.4084 75.1656 10.5644 75.2521 10.6959C75.3342 10.8218 75.4366 10.9209 75.5516 10.9856C75.5987 11.0102 75.6468 11.0307 75.6958 11.0472L75.8436 11.0922L75.8958 11.1088C75.7174 11.5578 75.6183 12.0557 75.6062 12.5642C75.5942 13.0726 75.6694 13.5779 75.8262 14.0412C75.8262 14.0878 75.8175 14.1345 75.8138 14.1811C75.7936 14.8368 75.8152 15.4936 75.8784 16.1443C75.8958 16.4024 75.9057 16.6872 75.7877 16.892C75.7339 16.9725 75.6735 17.0446 75.6075 17.1068C75.6746 16.9902 75.743 16.8753 75.8126 16.7604C75.6374 16.524 75.3603 16.494 75.1117 16.5173C74.6308 16.5655 74.1638 16.7566 73.7449 17.0768C73.4665 17.2916 73.1808 17.5764 72.8626 17.5264C72.675 17.4981 72.4899 17.3599 72.3072 17.4265C72.2046 17.4828 72.1087 17.5591 72.0227 17.653C71.9547 17.7183 71.8727 17.7522 71.7891 17.7495C71.594 17.4282 71.292 17.21 71.0584 16.9486C70.7925 16.6314 70.5492 16.2819 70.3315 15.9045C69.9289 15.2534 69.5275 14.6007 69.1324 13.943C68.7994 13.3901 68.4577 12.7923 68.3993 12.0846C68.3933 12.0144 68.3904 11.9438 68.3906 11.8732C68.3987 11.5369 68.4303 11.2024 68.485 10.8741C68.4997 10.7948 68.4997 10.7119 68.485 10.6326C68.4477 10.4661 68.3048 10.4045 68.1818 10.3678C68.198 10.2396 68.2091 10.1081 68.2154 9.98319C68.2849 8.55114 68.2092 7.09579 68.4353 5.69371C68.521 5.1542 68.6614 4.60802 68.951 4.21671C69.4045 3.60226 70.1637 3.45406 70.5117 2.72638C70.8024 2.12026 70.6869 1.2627 70.3216 0.728177C69.9562 0.193658 69.3933 -0.0244792 68.8578 0.00216351C68.7075 -0.0047485 68.5591 0.0485922 68.4316 0.155359C68.3124 0.297222 68.2232 0.478732 68.1731 0.681553L67.64 2.41832C67.4855 2.8705 67.3551 3.33681 67.2499 3.81374C67.1008 4.54308 67.0672 5.31238 66.9492 6.04839C66.9492 6.61455 66.677 7.32058 66.5279 7.84178C66.3614 8.42792 66.1812 9.0074 66.0309 9.60519C65.9936 9.75506 65.8631 10.1997 65.7824 10.6043C65.7518 10.6281 65.7235 10.6566 65.6979 10.6892C65.633 10.8006 65.574 10.918 65.5214 11.0406C65.4084 11.2404 65.2244 11.347 65.1002 11.5401C64.9759 11.7333 64.9498 12.088 65.1226 12.1845C65.1576 12.2003 65.1939 12.2109 65.2307 12.2162C65.2533 12.2187 65.2757 12.2237 65.2978 12.2312C65.4842 12.3011 65.5575 12.6158 65.5301 12.8756C65.5028 13.1353 65.4059 13.3751 65.3897 13.6349C65.3562 14.0945 65.5575 14.5224 65.7513 14.9088C65.952 15.3275 66.1737 15.7275 66.4149 16.106C66.5901 16.3691 66.7876 16.6056 66.9641 16.8587C67.6363 17.7845 68.1706 18.8669 68.7745 19.8726C68.9918 20.2522 69.2388 20.5995 69.5114 20.9084C69.6894 21.0949 69.8757 21.2668 70.0693 21.4229L71.1081 22.3054C71.2259 22.4211 71.3592 22.5054 71.5008 22.5535C71.547 22.5619 71.5938 22.5619 71.6399 22.5535C71.6462 22.5952 71.6511 22.6351 71.6586 22.6768C71.7393 23.113 71.917 23.5094 71.9369 23.954C71.9568 24.3986 71.927 24.8531 71.9506 25.3027C71.973 25.7174 72.0413 26.1353 72.0587 26.5433C72.0935 27.3293 71.9493 28.1052 71.8102 28.8745C71.6002 30.0002 71.4734 31.1492 71.0646 32.1699C70.9503 32.4513 70.8161 32.7377 70.8161 33.0591C70.8161 33.0974 70.8161 33.1374 70.8236 33.1757L70.6372 33.3172C70.5825 33.3588 70.5278 33.4005 70.4781 33.4438C70.242 33.6502 69.9898 33.8784 69.8929 34.2347C69.8146 34.5228 69.8506 34.8525 69.7562 35.1322C69.7517 35.1448 69.7467 35.157 69.7413 35.1689C69.6419 35.4286 69.4443 35.6218 69.3995 35.9065C69.366 36.1247 69.4306 36.3561 69.3995 36.5726C69.3995 36.5726 69.3995 36.5726 69.3995 36.5809C69.3713 36.6897 69.3488 36.8009 69.3324 36.914C69.3311 36.9509 69.3336 36.9879 69.3399 37.0239C69.3636 37.15 69.4156 37.2634 69.489 37.3486C69.5338 37.4062 69.5824 37.458 69.6344 37.5034C69.6874 37.5501 69.7421 37.5934 69.7984 37.6333L69.8307 37.6566C69.8779 37.6899 69.9252 37.7216 69.9736 37.7515L70.0059 37.7699C70.0618 37.8032 70.119 37.8331 70.1762 37.8598L70.2159 37.8764C70.2607 37.8964 70.3066 37.9147 70.3526 37.9297L70.3837 37.943L70.4123 37.9514L70.5365 37.9863L70.5825 37.998C70.6372 38.0102 70.6931 38.0202 70.7502 38.028H70.7999C70.8422 38.028 70.8832 38.0363 70.9242 38.038H70.9826C71.0261 38.038 71.0683 38.038 71.1069 38.038H71.1516C71.21 38.038 71.2684 38.0263 71.3268 38.0163H71.3454C71.3976 38.0063 71.4498 37.9947 71.502 37.9797L71.5418 37.968C71.5902 37.953 71.6387 37.938 71.6872 37.9181L71.7133 37.9081C71.7717 37.8848 71.8301 37.8598 71.8872 37.8298C72.085 37.7209 72.2768 37.5935 72.4613 37.4485C72.5855 37.3569 72.7098 37.2637 72.8341 37.1787C72.9262 37.1165 73.0208 37.0609 73.1174 37.0122C73.3524 36.8777 73.6081 36.8206 73.8629 36.8457C73.9887 36.8687 74.1132 36.9026 74.2357 36.9473C74.2357 36.9656 74.2357 36.9839 74.2357 37.0022C74.3368 37.8015 74.4366 38.6008 74.5352 39.4001C74.6978 39.2431 74.8699 39.1044 75.0496 38.9854C75.016 39.1061 74.9939 39.232 74.9837 39.3601C74.9763 39.4592 74.9763 39.5591 74.9837 39.6582C74.9949 39.8164 75.0198 39.9912 74.949 40.1161C74.9055 40.1927 74.8247 40.236 74.8011 40.3226C74.7838 40.4111 74.7796 40.5033 74.7887 40.594C74.7836 40.6975 74.7509 40.7951 74.6966 40.8691C74.6424 40.943 74.5701 40.9884 74.4929 40.997C74.5285 41.131 74.5293 41.2772 74.4953 41.4119C74.4612 41.5467 74.3943 41.6621 74.3053 41.7396C74.2533 41.7731 74.2048 41.8157 74.1611 41.8662C74.1187 41.9398 74.0901 42.026 74.0779 42.1176C73.9137 42.9422 73.5759 43.6862 73.1049 44.2607C72.9282 44.4467 72.767 44.6578 72.6241 44.8901C72.5357 45.0701 72.4628 45.2628 72.4066 45.4646C72.0753 46.5503 71.7389 47.6365 71.3976 48.7233C71.2088 49.3311 71.0249 49.9489 70.9652 50.6033C70.8161 52.3984 69.6232 53.9203 69.8469 55.7021C69.8921 56.1472 70.026 56.5677 70.2346 56.9193C70.4831 57.3206 70.8559 57.5504 71.2286 57.7369C72.1867 58.2365 73.1969 58.5095 74.2034 58.7843L75.784 59.2189C76.0941 59.3145 76.4088 59.3813 76.7259 59.4187C77.1073 59.4537 77.4987 59.4054 77.8703 59.5353C78.1002 59.6152 78.3201 59.7634 78.5574 59.7801C78.7612 59.7951 79.0122 59.7368 79.1328 59.9599C79.2533 60.183 79.1601 60.4778 79.2744 60.6759C79.4583 60.9906 79.9069 60.6759 80.1069 60.9723C80.1616 61.0862 80.2035 61.2102 80.2312 61.3403C80.2616 61.4208 80.3039 61.4922 80.3555 61.5501C80.3676 61.6441 80.3726 61.7395 80.3704 61.8349C80.3444 62.2216 80.2844 62.6028 80.1914 62.9705C80.0423 63.6466 79.8936 64.3232 79.7453 65.0004C79.6887 65.2395 79.6472 65.4846 79.6211 65.7331C79.6118 65.8537 79.6118 65.9754 79.6211 66.0961C79.6472 66.4641 79.805 66.8437 80.0672 66.9636C80.2706 67.0357 80.4869 66.9999 80.6711 66.8637C80.8488 66.7393 81.0156 66.5885 81.1681 66.4141C81.4432 66.1352 81.685 65.8016 81.8851 65.425C82.5064 64.1794 82.3051 62.4943 82.7412 61.1172C83.0308 60.198 83.5949 59.452 83.7825 58.4829C83.8264 58.2985 83.8316 58.1015 83.7974 57.9134C83.7192 57.5804 83.4545 57.3906 83.2072 57.2707H83.196C82.9929 57.1737 82.7854 57.0942 82.5747 57.0325C82.5225 57.0176 82.4691 57.0059 82.4157 56.9942C82.2974 56.8653 82.2034 56.7011 82.1411 56.5147C82.1313 56.4156 82.1117 56.3187 82.0827 56.2266C82.0629 56.1869 82.0364 56.1541 82.0052 56.1309C81.9741 56.1078 81.9393 56.0949 81.9037 56.0934C81.7795 56.0767 81.613 56.1367 81.4775 56.1234C81.2004 56.0967 81.0165 55.732 80.768 55.5639C80.5195 55.3957 80.2498 55.4373 79.9852 55.4623C79.8905 55.4796 79.7942 55.4717 79.7019 55.439C79.5915 55.3709 79.4906 55.2779 79.4036 55.1642C79.2507 55.0047 79.0722 54.8951 78.8822 54.8439C78.6922 54.7928 78.4959 54.8015 78.3089 54.8695C78.19 54.9338 78.0641 54.9721 77.9361 54.9827C77.6938 54.9644 77.5224 54.6747 77.3434 54.4549C76.8538 53.8537 76.1568 53.6955 75.5628 53.3009C75.4719 53.2556 75.3961 53.1682 75.3491 53.0544C75.2807 52.828 75.4348 52.6015 75.574 52.4467L76.5954 51.3094C77.7137 50.0638 79.1116 49.1263 79.631 47.2996C79.6852 47.0547 79.7692 46.8235 79.8795 46.6152C79.9197 46.5517 79.9661 46.4957 80.0175 46.4487C80.2434 46.2525 80.5172 46.1809 80.7817 46.2489C81.1039 46.3456 81.4093 46.5242 81.6813 46.7751C82.1262 47.1359 82.559 47.5244 82.9798 47.9407C83.3967 48.3399 83.7931 48.7761 84.1665 49.2462C84.8188 50.0788 85.3619 51.0662 85.9695 51.9638C86.5771 52.8613 87.2717 53.6989 88.1154 54.1285C88.9592 54.5581 89.9793 54.5398 90.7037 53.8188C91.54 52.9862 91.8084 51.4975 92.0197 50.1321C92.4856 49.5293 92.626 48.6118 92.8534 47.8008C92.9963 47.2863 93.179 46.8017 93.3331 46.2889C93.517 45.6861 93.6611 45.0633 93.8053 44.4422C93.9686 43.8185 94.0795 43.1723 94.1358 42.5156C94.1954 41.4782 93.9879 40.3742 94.2054 39.4001C94.4924 39.3151 94.7533 39.0987 95.0354 38.9721C95.4554 38.7873 95.9052 38.8173 96.3501 38.8206H96.3787C96.5319 38.8424 96.6862 38.7937 96.816 38.6824C96.9652 38.5159 96.9888 38.2311 96.9962 37.973C97.0136 37.3353 96.9838 36.6192 96.6272 36.2063ZM78.6233 7.80181C78.5206 7.83588 78.4142 7.84602 78.3089 7.83179L78.6233 7.80181Z" fill="url(#paint0_linear_69_2)"/>
<path d="M78.8677 17.8194C78.7413 17.9898 78.5931 18.1148 78.4334 18.1857L77.6932 18.6066C77.2913 18.8353 76.8716 19.0656 76.4477 18.9827C76.2107 18.9363 75.1949 18.6994 75.0414 18.4061C74.8076 17.952 75.6271 17.2842 75.9069 16.9014C75.9703 16.829 76.0291 16.7468 76.0823 16.6561C76.1867 16.4539 76.1731 16.1706 76.1585 15.9154C76.1054 15.2688 76.0873 14.6163 76.1042 13.9649C76.1124 13.8096 76.1263 13.6552 76.146 13.5025C76.2504 12.7402 76.6972 13.0186 77.0501 13.2208C77.4749 13.4398 77.8856 13.7223 78.2768 14.0643C78.396 14.1618 78.4995 14.3013 78.5796 14.472C78.7341 14.8432 78.6725 15.3304 78.6474 15.7977C78.6255 16.1606 78.6265 16.5086 78.7696 16.7721C78.8415 16.8728 78.9076 16.9838 78.9669 17.1035C79.0003 17.2241 79.0087 17.3585 78.9909 17.4872C78.973 17.6158 78.9299 17.7322 78.8677 17.8194Z" fill="#BE6F72"/>
<path d="M67.2345 6.83218C67.3595 6.11674 67.3871 5.37869 67.5371 4.66971C67.6431 4.20873 67.7743 3.75808 67.9298 3.32119L68.4813 1.65936C68.5318 1.46314 68.6215 1.28763 68.7414 1.15064C68.87 1.04781 69.0192 0.996133 69.1704 1.00206C69.7094 0.976219 70.2759 1.19263 70.6435 1.70458C71.0112 2.21653 71.1275 3.04502 70.8349 3.63127C70.4847 4.33702 69.7206 4.47914 69.2642 5.07345C68.9728 5.45298 68.8315 5.98108 68.7452 6.50272C68.5176 7.85932 68.5939 9.26597 68.5238 10.6516C68.5013 11.0828 68.4363 11.5754 68.1487 11.7983C67.9748 11.9083 67.7815 11.9568 67.5884 11.9388L66.768 11.9565C66.6305 11.9565 66.1315 12.068 66.0402 11.9339C65.8801 11.6998 66.2453 10.5337 66.3116 10.2737C66.4591 9.69717 66.6405 9.13516 66.8118 8.56829C66.9606 8.0628 67.2345 7.37966 67.2345 6.83218Z" fill="#BE6F72"/>
<path d="M83.9627 58.5013C83.7393 59.4636 83.0677 60.2127 82.723 61.1301C82.2037 62.5035 82.4375 64.1834 81.7037 65.4253C81.4657 65.8025 81.1779 66.1366 80.8501 66.4159C80.6685 66.5897 80.47 66.74 80.2584 66.8637C80.0391 66.9999 79.7816 67.0357 79.5394 66.9636C79.2273 66.8437 79.0394 66.4642 79.0083 66.0979C78.9972 65.9778 78.9972 65.8567 79.0083 65.7366C79.0394 65.4888 79.0889 65.2443 79.1563 65.0058C79.3338 64.3321 79.5108 63.6573 79.6874 62.9814C79.7978 62.6148 79.8693 62.2348 79.9004 61.8493C79.9196 61.4297 79.6829 60.8837 79.7835 60.4924C79.8294 60.316 80.001 60.1595 80.0794 60.0113C80.1907 59.7981 80.2763 59.5691 80.3338 59.3304C80.4551 58.8659 80.538 58.3698 80.7924 57.9785C80.9584 57.7465 81.1527 57.542 81.3694 57.3709C81.5293 57.2131 81.7168 57.0946 81.9197 57.0229C82.1166 56.984 82.3187 56.9948 82.5115 57.0546C82.7624 57.1149 83.0095 57.1939 83.2511 57.291H83.2644C83.5603 57.4108 83.8739 57.5956 83.9671 57.9319C84.0124 58.1185 84.0109 58.3156 83.9627 58.5013V58.5013Z" fill="#3F3D56"/>
<path d="M96.9962 38.674C96.9895 38.9084 96.9681 39.1701 96.8334 39.3169C96.7161 39.418 96.5767 39.4623 96.4382 39.4424H96.4079C96.0071 39.4424 95.5996 39.4122 95.2201 39.5801C94.9316 39.7086 94.6667 39.9446 94.3658 39.9915C93.9515 40.055 93.5619 39.7495 93.1948 39.4833C92.8492 39.2324 92.4943 39.0052 92.1317 38.8026C91.8936 38.671 91.4075 38.5862 91.293 38.2353C91.2538 38.0692 91.2208 37.9006 91.1942 37.7301C91.1754 37.6538 91.1525 37.5795 91.1257 37.5077C91.0584 37.3544 91.0156 37.1839 91 37.007C91.0004 36.8307 91.0456 36.6599 91.128 36.523C91.2196 36.3769 91.3317 36.2566 91.4579 36.1691C91.5841 36.0817 91.7219 36.0287 91.8633 36.0132C92.1463 35.9836 92.4308 36.0039 92.7098 36.0737L95.4739 36.6092C95.6872 36.65 95.9016 36.6909 96.1115 36.7604C96.3109 36.807 96.4989 36.9181 96.6594 37.0842C96.9861 37.4533 97.013 38.1022 96.9962 38.674Z" fill="#3F3D56"/>
<path d="M94.924 39.55C94.5447 40.594 94.8178 41.8292 94.7495 42.9837C94.6922 43.6325 94.5794 44.2708 94.4132 44.8869C94.2665 45.5004 94.1199 46.1155 93.9327 46.7109C93.7759 47.2056 93.5901 47.7004 93.4447 48.2051C93.2133 49.0099 93.0654 49.9153 92.5963 50.514C92.3814 51.863 92.1082 53.3374 91.2573 54.1554C90.5177 54.8679 89.4872 54.8926 88.6237 54.4622C87.7601 54.0317 87.0584 53.2071 86.4401 52.3182C85.8218 51.4293 85.2693 50.4612 84.6055 49.6333C84.2251 49.1675 83.8208 48.7361 83.3955 48.3419C82.9673 47.9362 82.5269 47.5547 82.0742 47.1974C81.7971 46.9501 81.4865 46.7737 81.1588 46.6779C80.8898 46.6106 80.6112 46.6815 80.3813 46.8758C80.329 46.9223 80.2818 46.9778 80.2409 47.0407C80.1284 47.2462 80.0429 47.4747 79.988 47.7169C79.457 49.5211 78.0321 50.448 76.8941 51.6783L75.8548 52.8014C75.7132 52.9548 75.5564 53.1791 75.626 53.4017C75.6738 53.5143 75.7509 53.6009 75.8434 53.6458C76.4478 54.035 77.1571 54.1917 77.6553 54.7854C77.8374 55.0031 78.0118 55.2901 78.2584 55.3065C78.3886 55.2966 78.5166 55.2593 78.6377 55.196C78.8279 55.1289 79.0275 55.1202 79.2208 55.1705C79.414 55.2209 79.5957 55.329 79.7516 55.4863C79.8401 55.5989 79.9427 55.691 80.055 55.7584C80.149 55.7908 80.247 55.7987 80.3433 55.7815C80.6126 55.7568 80.8984 55.7254 81.1399 55.8821C81.3814 56.0388 81.5799 56.4082 81.8618 56.4346C81.9996 56.4478 82.164 56.3884 82.2955 56.4049C82.3317 56.4064 82.3671 56.4192 82.3988 56.4421C82.4305 56.4651 82.4575 56.4975 82.4776 56.5368C82.5071 56.6275 82.5271 56.7229 82.537 56.8205C82.5888 57.0531 82.7633 57.1949 82.8771 57.3862C83.0516 57.6797 83.0769 58.0789 83.0592 58.4499C83.0019 59.6102 82.6055 60.6976 81.9516 61.4878C81.766 61.7353 81.5292 61.9072 81.2701 61.9825C81.1404 62.0179 81.0054 61.9992 80.8842 61.9291C80.763 61.859 80.6619 61.7409 80.5949 61.5917C80.5667 61.4633 80.5241 61.341 80.4685 61.2288C80.2649 60.9369 79.8085 61.247 79.6214 60.9353C79.505 60.7407 79.5885 60.429 79.4772 60.2278C79.366 60.0266 79.0979 60.0628 78.8918 60.0513C78.6503 60.0348 78.4265 59.8864 78.1926 59.8089C77.8133 59.6802 77.4163 59.7281 77.0282 59.6934C76.7056 59.6563 76.3854 59.5902 76.0698 59.4955L74.4615 59.0667C73.4374 58.7946 72.4094 58.5192 71.4346 58.0327C71.0616 57.848 70.6861 57.6204 70.4231 57.2246C70.2111 56.8768 70.0748 56.4609 70.0286 56.0206C69.7998 54.2609 71.0136 52.7569 71.1666 50.984C71.2209 50.3375 71.4194 49.7273 71.6066 49.127C71.9496 48.0539 72.2918 46.9803 72.6332 45.9061C72.6884 45.7061 72.7605 45.5147 72.8482 45.3354C72.9936 45.1058 73.1577 44.8974 73.3375 44.7137C73.8166 44.1466 74.1603 43.4114 74.3275 42.5961C74.3399 42.5054 74.3689 42.42 74.4122 42.3471C74.457 42.2981 74.5063 42.2566 74.5589 42.2234C74.6492 42.1467 74.7171 42.0327 74.7517 41.8996C74.7863 41.7665 74.7856 41.622 74.7498 41.4895C74.8283 41.481 74.9018 41.4361 74.957 41.3628C75.0123 41.2896 75.0455 41.1929 75.0507 41.0904C75.0415 41.0011 75.0458 40.9103 75.0633 40.8232C75.0937 40.7375 75.1695 40.6946 75.2138 40.6187C75.2859 40.495 75.2606 40.3219 75.2492 40.1668C75.2416 40.0687 75.2416 39.9698 75.2492 39.8716C75.2769 39.5224 75.3966 39.1966 75.588 38.9497C75.8902 38.5622 76.3201 38.6628 76.7374 38.5704C77.1535 38.4532 77.56 38.2837 77.9511 38.0641C79.0482 37.5002 80.2034 37.1518 81.3788 37.0301C82.5601 36.9089 83.7466 37.1553 84.8407 37.7491C84.9998 37.8332 85.1499 37.9441 85.287 38.0789C85.3843 38.1768 85.4642 38.3012 85.5209 38.4434C85.5676 38.618 85.6251 38.7873 85.6929 38.9497C85.8281 39.1905 86.0835 39.268 86.2315 39.4956C86.3794 39.7232 86.3921 40.1075 86.5147 40.3895C86.6904 40.7919 87.0976 40.9782 87.2189 41.4153C87.2569 41.5538 87.2619 41.7055 87.2897 41.849C87.358 42.2086 87.5629 42.4922 87.7437 42.7759C88.4065 43.81 88.8309 45.0681 88.9676 46.4041C89.008 45.568 89.4392 44.8275 89.9791 44.3657C90.1245 44.242 90.2926 44.1051 90.3217 43.8808C90.3584 43.5972 90.1472 43.3449 90.1611 43.0562C90.1765 42.9153 90.2201 42.7822 90.2876 42.6703C90.5285 42.2148 90.793 41.7811 91.0791 41.3724C91.2346 41.1498 91.4091 40.8776 91.3446 40.5841C91.2953 40.3647 91.1233 40.2361 91.0285 40.0448C90.9731 39.9307 90.9448 39.7979 90.9471 39.663C90.9493 39.528 90.982 39.397 91.0411 39.2862C91.1296 39.1295 91.27 39.0157 91.313 38.8293C91.3623 38.61 91.2523 38.3725 91.2864 38.1466C91.3326 37.9656 91.4244 37.8104 91.5469 37.7062C91.7146 37.507 91.9053 37.3434 92.112 37.2214C92.4458 37.0564 92.8176 37.1175 93.1716 37.1818C93.7633 37.289 94.4271 37.4539 94.7609 38.1004C94.9746 38.5044 95.0833 39.1179 94.924 39.55Z" fill="#65617D"/>
<path opacity="0.1" d="M96.9962 38.3272C96.9895 38.5312 96.9682 38.759 96.8335 38.8867C96.7163 38.9747 96.577 39.0132 96.4386 38.996H96.4083C96.4543 38.7221 96.7381 38.5655 96.7875 38.2877C96.796 38.2024 96.7894 38.1159 96.7681 38.0337C96.7469 37.9515 96.7115 37.8753 96.6641 37.8098C96.424 37.4293 96.038 37.2187 95.6543 37.0647C94.5701 36.6286 93.4087 36.5266 92.2814 36.7685C91.9748 36.827 91.6766 36.9347 91.395 37.0884C91.3016 37.1569 91.2117 37.2316 91.1257 37.3122C91.0584 37.1788 91.0156 37.0304 91 36.8764C91.0004 36.723 91.0456 36.5743 91.1279 36.4551C91.2194 36.328 91.3315 36.2234 91.4576 36.1472C91.5838 36.0711 91.7215 36.0249 91.8629 36.0115C92.1456 35.9857 92.43 36.0034 92.7089 36.0641L95.4714 36.5302C95.6845 36.5657 95.8989 36.6013 96.1087 36.6618C96.3079 36.7024 96.4958 36.7991 96.6562 36.9436C96.9861 37.2648 97.013 37.8296 96.9962 38.3272Z" fill="black"/>
<path opacity="0.1" d="M83.9528 58.2421C83.7298 59.2337 83.0595 60.0057 82.7155 60.951C82.1973 62.3664 82.4306 64.0975 81.6983 65.3773C81.4608 65.766 81.1735 66.1103 80.8464 66.3981C80.6651 66.5772 80.467 66.732 80.2559 66.8596C80.037 66.9999 79.78 67.0367 79.5383 66.9625C79.2268 66.839 79.0393 66.4478 79.0083 66.0704C78.9972 65.9466 78.9972 65.8219 79.0083 65.6981L79.0172 65.7256C79.1456 66.0858 79.3553 66.4633 79.686 66.5267C79.8101 66.5371 79.9347 66.5177 80.0521 66.4696C80.1695 66.4214 80.277 66.3457 80.3681 66.2471C80.8553 65.7925 81.1387 65.1148 81.4089 64.4612C81.6204 63.9898 81.7877 63.4934 81.908 62.9806C81.967 62.6889 81.9951 62.3904 82.0556 62.0988C82.3361 60.6817 83.2913 59.5254 83.5025 58.0894C83.5196 57.9906 83.5236 57.8894 83.5143 57.7892C83.4864 57.6585 83.4437 57.5328 83.3873 57.4152C83.336 57.2824 83.2983 57.143 83.2751 57C83.5704 57.1235 83.8834 57.314 83.9764 57.6605C84.0145 57.8532 84.0063 58.0544 83.9528 58.2421Z" fill="black"/>
<path opacity="0.1" d="M82 56.3033C81.8825 56.6884 81.6848 57.027 81.4275 57.2838C81.0661 57.629 80.6431 57.8585 80.195 57.9523C79.9864 58.019 79.7675 58.0157 79.5603 57.9427C79.2785 57.8202 79.0754 57.4891 78.7872 57.3936C78.5816 57.3236 78.3607 57.3856 78.1526 57.3474C77.7781 57.2822 77.4874 56.9241 77.1853 56.6375C76.2599 55.7653 75.0452 55.4836 74.1198 54.6113C74.0786 54.5796 74.0445 54.5352 74.0208 54.4824C74.0031 54.4252 73.9965 54.3636 74.0017 54.3026C74.0052 53.7735 74.1 53.2516 74.2797 52.773C74.4269 52.439 74.6022 52.1257 74.8027 51.8386C75.6316 50.5653 76.4643 49.2824 77.457 48.208C77.8733 47.7576 78.3277 47.3374 78.8533 47.1336C79.1452 47.0206 79.7215 46.914 80.0769 47.105C80.0245 47.1499 79.9771 47.2034 79.936 47.2641C79.823 47.4624 79.7372 47.683 79.6821 47.9167C79.1477 49.6596 77.7172 50.5542 76.5747 51.7415L75.5313 52.8255C75.3892 52.9735 75.2318 53.19 75.3016 53.4048C75.3496 53.5135 75.427 53.5971 75.5199 53.6404C76.1267 54.0161 76.8388 54.1673 77.3389 54.7403C77.5217 54.9504 77.6969 55.2273 77.9444 55.2432C78.0751 55.2336 78.2037 55.1976 78.3252 55.1366C78.5162 55.0718 78.7166 55.0634 78.9106 55.112C79.1046 55.1606 79.287 55.2649 79.4435 55.4167C79.5324 55.5254 79.6354 55.6143 79.7482 55.6794C79.8425 55.7106 79.9409 55.7182 80.0376 55.7016C80.3079 55.6778 80.5948 55.6475 80.8373 55.7987C81.0797 55.9499 81.279 56.3065 81.5621 56.3319C81.703 56.3447 81.868 56.2842 82 56.3033Z" fill="black"/>
<path d="M70.9689 33.8331C70.7698 34.0611 70.5581 34.3189 70.4764 34.7151C70.4093 35.0383 70.4407 35.4083 70.36 35.7222C70.2793 36.0361 70.098 36.2547 70.0582 36.591C70.0299 36.8358 70.0855 37.0936 70.0582 37.3384C70.0345 37.4657 70.0152 37.5955 70.0006 37.727C69.9901 38.0054 70.1242 38.2315 70.2552 38.3866C70.5342 38.71 70.8517 38.9123 71.1824 38.9772C71.5132 39.0421 71.8478 38.9678 72.1595 38.7603C72.4393 38.5735 72.6919 38.2689 72.9602 38.0297C73.2218 37.7611 73.5211 37.6315 73.8227 37.656C73.9956 37.6897 74.1612 37.8018 74.3341 37.8429C74.4195 37.873 74.5078 37.8656 74.5912 37.8213C74.6746 37.777 74.7508 37.6972 74.8131 37.5888C74.8665 37.4573 74.9023 37.3059 74.9179 37.1459C75.0636 36.1202 74.9975 35.0327 74.8592 34.0013C74.7208 32.9699 74.5112 31.9777 74.3635 30.9519C74.2587 30.1915 74.178 29.4123 74.003 28.693C73.8279 27.9736 73.5334 27.3047 73.1216 27.03C73.0891 27.0016 73.0523 26.993 73.0168 27.0057C72.9903 27.0254 72.967 27.0562 72.9486 27.0954C72.6228 27.711 72.3774 28.4473 72.2297 29.2516C72.0652 30.1466 72.0201 31.0958 71.8692 31.9946C71.8042 32.3682 71.7204 32.869 71.5548 33.1549C71.3892 33.4408 71.1565 33.6183 70.9689 33.8331Z" fill="#3F3D56"/>
<path opacity="0.1" d="M74.9186 37.1457C74.901 37.3061 74.8634 37.4573 74.8086 37.5882C74.7464 37.6969 74.6703 37.7768 74.5868 37.8207C74.5033 37.8647 74.415 37.8714 74.3297 37.8403C74.1578 37.8029 73.9922 37.689 73.8193 37.6536C73.5177 37.6287 73.2184 37.7583 72.9568 38.027C72.6886 38.266 72.4329 38.5628 72.1552 38.7551C71.7489 39.0296 71.3051 39.0745 70.884 38.8839C70.6603 38.7838 70.4478 38.6172 70.2552 38.391C70.1232 38.2379 69.9901 38.0176 70.0006 37.732C70.0152 37.6011 70.0345 37.4721 70.0582 37.3455C70.0855 37.1009 70.031 36.8433 70.0582 36.5987C70.098 36.2627 70.2804 36.0386 70.36 35.7287C70.4397 35.4188 70.4093 35.0472 70.4753 34.7242C70.557 34.3266 70.7698 34.0708 70.9689 33.8411C71.168 33.6115 71.4048 33.436 71.5641 33.1578C71.5847 33.1145 71.6033 33.0683 71.6197 33.0196C71.7345 32.704 71.8188 32.3563 71.8691 31.9909C72.0231 31.091 72.065 30.1444 72.2285 29.2483C72.3768 28.4452 72.6226 27.7102 72.9485 27.0956C72.9659 27.0555 72.9891 27.0246 73.0155 27.006C73.0509 26.9932 73.0877 27.001 73.1203 27.0284C73.5311 27.3047 73.8256 27.9731 74.0016 28.6919C74.1777 29.4107 74.2521 30.1855 74.3621 30.9473C74.5089 31.9723 74.7195 32.9674 74.8578 33.9961C74.9962 35.0248 75.0643 36.1189 74.9186 37.1457Z" fill="black"/>
<path opacity="0.1" d="M78.9611 15.8414C78.3895 16.0937 77.771 16.0436 77.2244 15.7007C76.6778 15.3577 76.2417 14.7461 76 13.9834C76.0095 13.8252 76.0257 13.6678 76.0486 13.5122C76.1702 12.7352 76.6904 13.019 77.1013 13.2251C77.5959 13.4483 78.0741 13.7362 78.5296 14.0848C78.6683 14.1842 78.7889 14.3263 78.8821 14.5003C79.062 14.8736 78.9902 15.3701 78.9611 15.8414Z" fill="black"/>
<path d="M78.5 16C79.8807 16 81 14.433 81 12.5C81 10.567 79.8807 9 78.5 9C77.1193 9 76 10.567 76 12.5C76 14.433 77.1193 16 78.5 16Z" fill="#BE6F72"/>
<path opacity="0.1" d="M84.9998 38.2155C84.9998 38.5014 84.7166 38.5927 84.5064 38.5772C83.7512 38.5169 83.0124 38.2327 82.2648 38.3188C81.3196 38.436 80.4511 39.1508 79.5034 39.2163C79.1384 39.2421 78.7671 39.168 78.4071 39.2593C77.9414 39.3782 77.5261 39.7657 77.0516 39.8209C76.64 39.8691 76.2335 39.6572 75.8219 39.6796C75.5341 39.7031 75.2536 39.8124 75 40C75.0276 39.6353 75.1468 39.2949 75.3373 39.0371C75.6381 38.6323 76.0661 38.7374 76.4814 38.6409C76.8957 38.5185 77.3004 38.3414 77.6897 38.1121C78.7818 37.5232 79.9317 37.1592 81.1018 37.0321C82.2771 36.9042 83.4577 37.1598 84.5467 37.7779C84.7051 37.8658 84.8545 37.9816 84.991 38.1225C84.9979 38.1525 85.0008 38.184 84.9998 38.2155V38.2155Z" fill="black"/>
<path d="M77.0633 19.5829L76.0512 19.087L75.6239 18.8788C75.4498 18.7822 75.2665 18.7177 75.0791 18.687C74.5893 18.6375 74.1283 19.0688 73.8671 19.6192C73.606 20.1696 73.5073 20.8258 73.4236 21.4654C73.3086 22.3403 73.2112 23.2185 73.1312 24.1C73.0451 24.896 73.0012 25.699 73 26.5032C73.0287 28.5493 73.3561 30.5674 73.716 32.5591C73.8922 33.4421 74.0253 34.3392 74.1145 35.2449C74.1445 35.6184 74.1583 35.9936 74.1883 36.3688C74.2207 36.7902 74.2732 37.2068 74.3257 37.6249L74.6268 40C75.0017 39.648 75.4277 39.3389 75.8888 39.3207C76.2974 39.3009 76.7022 39.5025 77.1095 39.4562C77.5781 39.405 77.9929 39.0331 78.4552 38.9191C78.8126 38.8315 79.1812 38.9009 79.5448 38.8777C80.4844 38.8149 81.3478 38.1274 82.2849 38.0166C83.0283 37.9274 83.7668 38.205 84.5114 38.2629C84.7189 38.2794 85 38.1918 85 37.9158C85 37.7241 84.8551 37.5968 84.7289 37.501C84.134 37.0272 83.5679 36.4928 83.0358 35.9027C82.5435 35.387 82.0437 34.8581 81.7051 34.1606C80.8892 32.483 81.1691 30.2137 80.4731 28.4436C79.9071 27.0056 80.4731 25.1214 80.4731 23.5C80.4731 22.6918 80.4731 21.8737 80.3294 21.0886C80.2396 20.6495 80.1278 20.2188 79.9946 19.7994L79.5085 18.1714C79.4985 18.1238 79.4785 18.0809 79.4511 18.0474C79.4184 18.0176 79.3795 18.002 79.3399 18.0028C79.048 17.9796 78.7601 18.1017 78.5327 18.3449C78.304 18.5912 78.1579 18.9449 77.9329 19.2011C77.6868 19.4837 77.3694 19.7316 77.0633 19.5829Z" fill="#E3E8F4"/>
<path d="M79.1817 17.7751C79.2573 17.2972 79.3388 16.8 79.5551 16.4267C79.7713 16.0533 80.166 15.8562 80.4449 16.1231C80.7616 16.4267 80.7746 17.1279 81.0452 17.5187C81.2815 17.8537 81.636 17.8798 81.9575 17.9234C82.5354 18.0011 83.1031 18.1984 83.6437 18.5096C83.7492 18.5578 83.8452 18.6428 83.9238 18.7573C84.0715 19.005 84.042 19.3853 84.1152 19.6941C84.2157 20.0918 84.4934 20.3448 84.6009 20.7408C84.7191 21.1804 84.6009 21.6723 84.5017 22.1242C84.3232 22.9354 84.211 23.778 84.0372 24.5926C83.8635 25.4073 83.6166 26.2098 83.2101 26.8238C83.0304 27.096 82.7634 27.3472 82.527 27.1849L82.436 28.1531C82.4095 28.3577 82.4095 28.5679 82.436 28.7724C82.4498 28.8748 82.4828 28.9694 82.5313 29.0453C82.5798 29.1212 82.6418 29.1754 82.7102 29.2016C82.7279 29.3516 82.8355 29.4231 82.9229 29.5051C82.9875 29.5703 83.0426 29.6537 83.0851 29.7506C83.1277 29.8475 83.1568 29.9558 83.1707 30.0694C83.1847 30.183 83.1833 30.2996 83.1665 30.4123C83.1497 30.5251 83.1179 30.6318 83.073 30.7263C82.9985 30.8746 82.8886 30.9914 82.8532 31.1676C82.8 31.4223 82.9265 31.691 83.0801 31.8305C83.2337 31.9701 83.4145 32.0346 83.5705 32.169C83.8943 32.4446 84.068 32.9871 84.179 33.514C84.2618 33.9117 84.3303 34.3426 84.5336 34.6322C84.6115 34.7421 84.7049 34.8258 84.7794 34.941C84.9082 35.1657 84.9826 35.4475 84.9909 35.7417C85.0232 36.1063 84.9689 36.4762 84.8373 36.7884C84.6009 37.2873 84.1601 37.4356 83.7737 37.6606C83.1462 38.0409 82.6298 38.7213 82.0768 39.3005C81.8516 39.5683 81.5862 39.7525 81.3028 39.8378C80.9199 39.9128 80.543 39.6633 80.1577 39.6406C79.9273 39.6438 79.6979 39.6883 79.4747 39.7732L78.7657 40C78.8035 39.1888 78.501 38.3759 78.332 37.6031C78.013 36.1482 77.9539 34.5921 78.0295 33.0674C78.1051 31.5427 78.3155 30.0389 78.5235 28.5422C78.6688 27.4955 78.6546 26.4017 78.878 25.3846C79.0871 24.406 79.3861 23.4657 79.496 22.4469C79.6756 20.7984 78.9288 19.401 79.1817 17.7751Z" fill="#3F3D56"/>
<path d="M84.0248 21.2417C84.0982 21.4147 84.1499 21.6014 84.1779 21.7949C84.2394 22.0948 84.3547 22.3722 84.5146 22.6052C84.6486 22.7563 84.7675 22.9278 84.8688 23.1159C84.9912 23.4121 84.9446 23.773 85.0019 24.0964C85.0684 24.4488 85.2615 24.7552 85.2894 25.1178C85.2902 25.2216 85.2978 25.3253 85.312 25.4276C85.3986 25.8395 85.8725 25.9382 85.9777 26.3502C86.0482 26.6174 85.9271 26.9085 85.9497 27.1894C85.9662 27.2763 85.9703 27.3662 85.9617 27.455C85.9316 27.5553 85.8787 27.6418 85.8099 27.7035C85.3693 28.2417 85.0644 28.9357 84.934 29.6968C84.8057 30.4538 84.7384 31.2255 84.733 32L84.2125 31.1199C84.1573 31.0132 84.0869 30.9207 84.0048 30.8476C83.9382 30.7965 83.861 30.771 83.7931 30.7199C83.5961 30.5769 83.5189 30.2739 83.443 30.0015C83.2322 29.2476 82.9165 28.5486 82.5112 27.9384C82.2995 27.6201 82.0532 27.3001 82.0066 26.8864C81.9927 26.6964 82.0008 26.5048 82.0306 26.3178C82.1637 25.2029 82.3062 24.0606 82.7308 23.0716C82.9292 22.6086 83.1861 22.1899 83.3765 21.72C83.5043 21.4085 83.684 20.5982 84.0248 21.2417Z" fill="#3F3D56"/>
<path d="M71.9658 22.4316C71.968 22.5685 71.9414 22.7036 71.8888 22.8219C71.8413 22.894 71.7794 22.9473 71.7101 22.976C71.6409 23.0048 71.5669 23.0077 71.4964 22.9846C71.355 22.9381 71.2218 22.8564 71.104 22.7438C70.7579 22.4576 70.4119 22.1708 70.0659 21.8834C69.8727 21.7309 69.6865 21.5636 69.5083 21.3824C69.236 21.0812 68.9891 20.7426 68.772 20.3723C68.1685 19.3964 67.6345 18.3375 66.9627 17.4445C66.7802 17.2005 66.5902 16.9663 66.4139 16.711C66.1729 16.3418 65.9513 15.9516 65.7508 15.5431C65.5571 15.1673 65.3559 14.751 65.3895 14.302C65.4093 14.0483 65.5025 13.8141 65.5298 13.5619C65.5571 13.3098 65.4838 13.0024 65.2976 12.9341C65.2755 12.9268 65.2531 12.9219 65.2305 12.9194C65.1937 12.9143 65.1575 12.904 65.1225 12.8885C64.9499 12.7942 64.9759 12.4445 65.1001 12.2607C65.2243 12.0769 65.4081 11.9744 65.5211 11.7727C65.5736 11.653 65.6326 11.5384 65.6974 11.4295C65.7806 11.3361 65.8799 11.2708 65.9867 11.2392C66.703 10.9627 67.4607 10.9253 68.1908 11.1302C68.315 11.166 68.4566 11.2311 68.4938 11.3889C68.5087 11.4657 68.5087 11.5462 68.4938 11.6231C68.4391 11.9438 68.4075 12.2705 68.3994 12.599C68.3992 12.6675 68.4022 12.7359 68.4081 12.804C68.4665 13.4936 68.808 14.0776 69.1408 14.6159C69.5357 15.2568 69.9367 15.8928 70.3391 16.5271C70.5566 16.8948 70.7998 17.2351 71.0655 17.5437C71.3138 17.8138 71.6354 18.0317 71.8292 18.3782C71.9869 18.6579 71.9359 19.0402 71.9533 19.3769C72.0111 20.3935 72.0152 21.4142 71.9658 22.4316V22.4316Z" fill="#3F3D56"/>
<path d="M87.9745 29.3855C88.0916 29.224 88.1973 29.0465 88.2899 28.8556C88.3896 28.6192 88.4692 28.3668 88.5271 28.1038L89.2149 25.3369C89.324 24.8996 89.4331 24.4606 89.5707 24.035C89.713 23.5759 89.8814 23.1335 90.0367 22.6895C90.4363 21.5209 90.7452 20.2943 90.9581 19.0311C90.9956 18.8576 91.0081 18.6751 90.9949 18.4946C90.9617 18.2036 90.8063 17.9765 90.6581 17.7696C90.509 17.5413 90.3392 17.3421 90.1529 17.1776C90.0594 17.0951 89.9553 17.0398 89.8466 17.015C89.7378 16.9901 89.6267 16.9962 89.5197 17.0329C89.2161 17.1591 89.0252 17.5997 88.9552 18.0421C88.8852 18.4845 88.9113 18.9369 88.8817 19.3877C88.839 20.0336 88.6824 20.6576 88.6445 21.3052C88.6243 21.6803 88.6445 22.0587 88.6125 22.4321C88.5541 22.9225 88.4336 23.3937 88.2567 23.8231C87.8714 24.8459 87.3508 25.7539 86.7234 26.4975C86.5515 26.6775 86.3968 26.8884 86.2632 27.1249C86.1517 27.3614 86.0762 27.6284 86.0415 27.9087C85.9627 28.3355 85.9969 28.7884 86.1375 29.182C86.3308 29.6495 86.702 29.8547 87.0566 29.959C87.5357 30.1003 87.646 29.8682 87.9745 29.3855Z" fill="#BE6F72"/>
<path d="M78.3423 8.18356C78.4588 7.91688 78.6372 7.6979 78.8552 7.55396C79.0732 7.41002 79.3212 7.34748 79.5682 7.37416C79.8169 7.42784 80.0484 7.5653 80.2364 7.77099C80.4243 7.97668 80.5613 8.24237 80.6317 8.53798C80.6953 8.7836 80.721 9.0556 80.8319 9.26661C80.9997 9.58476 81.3109 9.67708 81.5437 9.90786C81.6826 10.0651 81.7944 10.2546 81.8725 10.4652C81.9506 10.6758 81.9933 10.9033 81.9983 11.1343C82.0113 11.6062 81.9502 12.0767 81.8183 12.5207C81.7624 12.7101 81.7172 12.904 81.683 13.101C81.656 13.2922 81.6533 13.4867 81.6289 13.6779C81.5989 13.9259 81.5285 14.164 81.4219 14.3783C81.3152 14.5926 81.1744 14.7788 81.0078 14.9258C80.9604 14.9729 80.9013 14.9991 80.8401 15C80.7345 14.9852 80.6696 14.8352 80.6303 14.7C80.4152 13.9433 80.4666 13.0185 80.0702 12.4152C79.8898 12.1718 79.6719 11.9741 79.4288 11.8333C79.3297 11.7554 79.218 11.7042 79.1013 11.6833C78.9298 11.6945 78.7648 11.768 78.6278 11.8943C78.3422 12.1277 78.0253 12.2984 77.6914 12.3987C77.5248 12.4468 77.3515 12.449 77.1842 12.405C77.0168 12.3611 76.8596 12.2722 76.724 12.1448C76.5373 11.9569 76.4006 11.675 76.1936 11.5283C75.9866 11.3816 75.7701 11.3898 75.5658 11.2893C75.4355 11.2218 75.3197 11.119 75.227 10.9887C75.1344 10.8585 75.0674 10.7041 75.0311 10.5375C74.9948 10.3709 74.9902 10.1964 75.0177 10.0273C75.0452 9.85815 75.104 9.69891 75.1896 9.56168C75.3249 9.36387 75.5252 9.25177 75.6456 9.03252C75.8012 8.74899 75.7877 8.35994 75.8621 8.02036C75.9061 7.80551 75.9916 7.60656 76.1114 7.43999C76.2311 7.27343 76.3818 7.14405 76.5508 7.0626C76.7147 6.99477 76.8906 6.98179 77.0601 7.02499C77.2295 7.06819 77.3863 7.16601 77.5142 7.30822C77.6495 7.45658 77.7577 7.64781 77.8903 7.80276C78.0213 7.95544 78.1815 8.06562 78.3565 8.12323C78.5314 8.18083 78.7154 8.18401 78.8916 8.13246" fill="#3F3D56"/>
<path opacity="0.1" d="M80.1786 32.4546C80.0986 32.5202 80.0419 32.6064 80.0159 32.7021C79.9899 32.7978 79.9959 32.8984 80.0329 32.9909C80.0632 33.0504 81.4812 32.7987 81.631 32.7797C82.0047 32.7303 82.6602 32.7544 82.9116 32.4394C83.3596 31.8815 81.9718 32.0055 81.7175 32.0257C81.2339 32.0637 80.5468 32.1244 80.1786 32.4546Z" fill="black"/>
<path d="M67.9845 11.656C67.9376 11.9902 67.9105 12.3306 67.9036 12.6729C67.5844 12.7763 67.2524 12.6068 66.9459 12.4373L66.0659 11.9594C66.0123 11.9049 65.9478 11.8849 65.8853 11.9035C65.8229 11.9221 65.7672 11.9778 65.7296 12.0594C65.5881 12.2933 65.3933 12.7373 65.1975 13C65.166 12.9947 65.135 12.9839 65.105 12.9678C64.957 12.8695 64.9794 12.5051 65.0858 12.3136C65.1922 12.1221 65.3497 12.0153 65.4465 11.8052C65.4916 11.6805 65.5421 11.561 65.5976 11.4475C65.6689 11.3502 65.754 11.2822 65.8456 11.2493C66.4594 10.9612 67.1087 10.9221 67.7344 11.1357C67.8409 11.173 67.9622 11.2408 67.9941 11.4052C68.0045 11.4887 68.0011 11.5751 67.9845 11.656Z" fill="#3F3D56"/>
<path opacity="0.1" d="M67.9845 11.656C67.9376 11.9902 67.9105 12.3306 67.9036 12.6729C67.5844 12.7763 67.2524 12.6068 66.9459 12.4373L66.0659 11.9594C66.0123 11.9049 65.9478 11.8849 65.8853 11.9035C65.8229 11.9221 65.7672 11.9778 65.7296 12.0594C65.5881 12.2933 65.3933 12.7373 65.1975 13C65.166 12.9947 65.135 12.9839 65.105 12.9678C64.957 12.8695 64.9794 12.5051 65.0858 12.3136C65.1922 12.1221 65.3497 12.0153 65.4465 11.8052C65.4916 11.6805 65.5421 11.561 65.5976 11.4475C65.6689 11.3502 65.754 11.2822 65.8456 11.2493C66.4594 10.9612 67.1087 10.9221 67.7344 11.1357C67.8409 11.173 67.9622 11.2408 67.9941 11.4052C68.0045 11.4887 68.0011 11.5751 67.9845 11.656Z" fill="black"/>
<path opacity="0.1" d="M77.551 42.5991C77.7362 42.6726 77.937 42.7797 78 43L76.5101 42.5501L75.7381 42.316C75.6017 42.2747 75.1128 42.2273 75.0227 42.1003C74.894 41.9136 75.3508 42.0421 75.4331 42.0559C75.6827 42.1003 75.9324 42.1462 76.1807 42.1997C76.649 42.2992 77.0993 42.4629 77.551 42.5991Z" fill="black"/>
<path opacity="0.1" d="M79 44C78.8345 43.9169 78.3596 43.9268 78.1561 43.8909C77.8583 43.8376 77.5654 43.7669 77.2725 43.6987C76.6785 43.5536 76.0894 43.3887 75.4788 43.2821C75.3663 43.2635 74.9824 43.2585 75.0006 43.1519C75.0188 43.0453 75.3845 43.0081 75.4755 43.0031C76.0166 42.9734 76.6917 43.1631 77.1947 43.2982C77.8358 43.4703 78.4431 43.7063 79 44V44Z" fill="black"/>
<path opacity="0.1" d="M78 41C77.491 40.8379 77.0291 40.4685 76.5049 40.3972C76.3682 40.4032 76.2338 40.3553 76.1234 40.261C76.0618 40.1903 76.019 40.1002 76 40.0017C76.3509 39.9807 76.7587 40.1541 77.0777 40.3178C77.2532 40.4057 77.4221 40.5109 77.5825 40.6321C77.699 40.7148 77.8738 40.953 78 41Z" fill="black"/>
<path d="M86.5082 26C86.4327 26.7406 86.542 27.4963 86.8159 28.1287C87.0899 28.7611 87.5102 29.2278 88 29.4436C87.9404 29.8658 87.6423 30.0991 87.4318 30.4002C87.1349 30.8224 86.9816 31.4548 86.6311 31.7755C86.2405 32.1318 85.738 31.9928 85.2927 31.8432C85.2522 31.8366 85.2148 31.808 85.188 31.763C85.1788 31.7417 85.1723 31.7182 85.1685 31.6936C85.0213 30.9044 84.9252 30.0617 85.0761 29.2708C85.1977 28.5974 85.4898 28.0237 85.7234 27.4287C85.957 26.8337 85.9789 26.196 86.5082 26Z" fill="#3F3D56"/>
<path d="M75.3596 17.0054C74.9146 17.0515 74.4824 17.2388 74.0949 17.5536C73.8373 17.7631 73.5729 18.0446 73.2786 17.9939C73.1049 17.9661 72.9336 17.8302 72.7646 17.8957C72.6694 17.9504 72.5806 18.0254 72.5013 18.1183C72.4611 18.1639 72.4133 18.1938 72.3625 18.2053C72.3117 18.2168 72.2598 18.2094 72.2116 18.1837L72.0966 20.4488C72.0529 21.3097 72.0104 22.1886 72.1553 23.0282C72.23 23.457 72.3944 23.8465 72.4128 24.2818C72.4312 24.7171 72.4036 25.164 72.4254 25.6042C72.4461 26.0117 72.5094 26.4127 72.5255 26.8202C72.5577 27.5894 72.4243 28.3521 72.2955 29.1C72.1012 30.2031 71.9839 31.3308 71.6057 32.3291C71.4999 32.6057 71.3757 32.8872 71.3757 33.2014C71.3757 33.2407 71.3757 33.2783 71.3826 33.316C71.2677 33.406 71.1607 33.4911 71.063 33.5795C70.8446 33.7808 70.6112 34.005 70.5215 34.3536C70.449 34.6367 70.4824 34.9608 70.395 35.2341C70.3076 35.5074 70.1076 35.7022 70.0639 35.9968C70.0328 36.2112 70.0926 36.437 70.0639 36.6514C70.0378 36.7624 70.0167 36.8755 70.0006 36.9902C69.9891 37.2357 70.1352 37.4337 70.28 37.5679C70.4913 37.7661 70.7245 37.9122 70.9699 38L71.6563 34.1212C72.2821 32.4741 72.8027 30.7504 73.2119 28.9707C73.3289 28.389 73.4793 27.8219 73.6614 27.2752C73.7916 26.9659 73.9068 26.6444 74.0063 26.3129C74.111 25.9004 74.1213 25.4536 74.1719 25.0183C74.232 24.5102 74.3224 24.0103 74.4421 23.5241C74.5663 22.9987 74.71 22.475 74.7353 21.9234C74.7732 21.1346 74.572 20.3015 74.7859 19.5716C74.8766 19.2984 74.9948 19.0454 75.1365 18.8204C75.4332 18.3032 75.7034 17.7615 76 17.2443C75.8459 17.0103 75.5895 16.9857 75.3596 17.0054Z" fill="#3F3D56"/>
<g opacity="0.1">
<path opacity="0.1" d="M78.7431 7.69489L78.5888 7.71001L78.5715 7.72682C78.6293 7.72362 78.6868 7.71292 78.7431 7.69489V7.69489Z" fill="black"/>
<path opacity="0.1" d="M81.5676 11.1399C81.5419 11.4698 81.4889 11.7948 81.4096 12.109C81.3586 12.2997 81.3173 12.4948 81.2862 12.6931C81.2615 12.8856 81.259 13.0814 81.2368 13.2739C81.2094 13.5235 81.1452 13.7632 81.0479 13.979C80.9506 14.1947 80.8221 14.3821 80.6702 14.5301C80.6269 14.5775 80.5729 14.6039 80.5171 14.6048C80.4208 14.5898 80.3615 14.4388 80.3257 14.3028C80.1295 13.5411 80.1764 12.6101 79.8147 12.0028C79.6501 11.7578 79.4513 11.5587 79.2295 11.417C79.1391 11.3386 79.0372 11.2871 78.9308 11.266C78.7742 11.2773 78.6237 11.3513 78.4987 11.4784C78.2382 11.7133 77.949 11.8852 77.6444 11.9862C77.4924 12.0346 77.3343 12.0368 77.1816 11.9926C77.0289 11.9483 76.8855 11.8589 76.7618 11.7306C76.5914 11.5415 76.4667 11.2577 76.2779 11.11C76.089 10.9623 75.8915 10.9706 75.7051 10.8694C75.5886 10.8025 75.4849 10.7013 75.4015 10.5732C75.3182 10.445 75.2574 10.2933 75.2236 10.1293C75.2193 10.1086 75.216 10.0875 75.2137 10.0662C75.1829 10.2515 75.1863 10.444 75.2236 10.6271C75.2574 10.7912 75.3182 10.9429 75.4015 11.071C75.4849 11.1991 75.5886 11.3004 75.7051 11.3672C75.8915 11.4684 76.1013 11.4701 76.2779 11.6078C76.4544 11.7456 76.5914 12.0393 76.7618 12.2285C76.8855 12.3567 77.0289 12.4462 77.1816 12.4904C77.3343 12.5346 77.4924 12.5324 77.6444 12.484C77.949 12.383 78.2382 12.2112 78.4987 11.9762C78.6237 11.8491 78.7742 11.7751 78.9308 11.7638C79.0372 11.7849 79.1391 11.8364 79.2295 11.9148C79.4485 12.0593 79.6443 12.26 79.806 12.5056C80.1677 13.1129 80.1208 14.0439 80.3171 14.8056C80.3529 14.9433 80.4121 15.0926 80.5084 15.1076C80.5677 15.108 80.6251 15.0797 80.6702 15.0279C80.8228 14.8795 80.9517 14.6914 81.0492 14.4748C81.1468 14.2581 81.211 14.0174 81.238 13.7668C81.2602 13.5743 81.2627 13.3784 81.2874 13.186C81.3186 12.9877 81.3598 12.7925 81.4108 12.6018C81.5311 12.1549 81.5868 11.6812 81.575 11.2063C81.5726 11.1863 81.5701 11.1631 81.5676 11.1399Z" fill="black"/>
</g>
<path d="M74 25L73.9165 26.5132C73.9042 26.7187 73.6133 31.6113 71.4674 37.3293C69.626 42.2336 66.0426 48.6212 59.2772 52.2111C58.7493 52.4928 58.2014 52.7558 57.6334 53L57 50.315C58.5903 49.6393 60.1222 48.7347 61.5692 47.6168C65.0175 44.9285 67.6987 41.0916 69.5683 36.1543C70.5603 33.5255 71.2672 30.7179 71.6675 27.8176H63.9704V25H74Z" fill="#034C8C"/>
<path opacity="0.1" d="M57.8982 52.2094C64.8885 48.6195 68.593 42.2336 70.4947 37.3293C72.7123 31.6113 73.0143 26.722 73.0257 26.5132L73.1119 25H74L73.9137 26.5132C73.9023 26.7187 73.6004 31.6113 71.3828 37.3293C69.4798 42.2336 65.7766 48.6195 58.7863 52.2094C58.2407 52.4912 57.6741 52.7547 57.0863 53L57 52.647C57.3062 52.5044 57.6056 52.3586 57.8982 52.2094Z" fill="white"/>
<path d="M44 50.315L43.3666 53C42.7978 52.7547 42.2494 52.4912 41.7215 52.2094C34.9574 48.6195 31.3728 42.2336 29.5326 37.3293C27.3867 31.6113 27.0945 26.722 27.0835 26.5132L27 25H37.0247V27.8176H29.3263C29.7287 30.7183 30.4378 33.5258 31.4317 36.1543C33.3013 41.0916 35.9812 44.9285 39.4296 47.6151C40.8768 48.7342 42.4091 49.6394 44 50.315V50.315Z" fill="#034C8C"/>
<path opacity="0.1" d="M43.1018 52.2094C36.1115 48.6195 32.407 42.2336 30.5053 37.3293C28.2877 31.6113 27.9857 26.722 27.9743 26.5132L27.8881 25H27L27.0863 26.5132C27.0977 26.7187 27.3996 31.6113 29.6172 37.3293C31.5202 42.2336 35.2234 48.6195 42.2137 52.2094C42.7593 52.4912 43.3259 52.7547 43.9137 53L44 52.647C43.6947 52.5044 43.3953 52.3586 43.1018 52.2094Z" fill="white"/>
<path d="M62 75.6976V91H39V75.6976L39.7314 74.3622C47.1848 70.7398 48.6952 61.2933 48.9963 57.5558C49.0411 57.0393 49.0667 56.52 49.0731 56H51.9172C51.9235 56.52 51.9491 57.0393 51.994 57.5558C52.2999 61.2933 53.8104 70.7432 61.2588 74.3622L62 75.6976Z" fill="#034C8C"/>
<path opacity="0.1" d="M62 76H39V78H62V76Z" fill="black"/>
<path opacity="0.1" d="M40.9 74.3622C48.1605 70.7398 49.6319 61.2933 49.9252 57.5558C49.9688 57.0393 49.9938 56.52 50 56H48.8125C48.8063 56.52 48.7813 57.0393 48.7377 57.5558C48.4396 61.2933 46.9683 70.7432 39.7125 74.3622L39 75.6976V91H40.1875V75.6976L40.9 74.3622Z" fill="white"/>
<path opacity="0.1" d="M36 25H37V27H36.0887C36.0528 26.3412 36.0232 25.6745 36 25Z" fill="black"/>
<path opacity="0.1" d="M44 50.0083L43.4456 53C42.9478 52.7267 42.4679 52.4331 42.0059 52.1191C41.2459 50.5239 40.5744 48.8101 40 47C41.2666 48.247 42.6076 49.2556 44 50.0083Z" fill="black"/>
<path opacity="0.1" d="M57 50.0065C58.3922 49.2536 59.7332 48.2456 61 47C60.4251 48.8103 59.7534 50.5247 58.9936 52.121C58.5314 52.4349 58.0518 52.7279 57.5545 53L57 50.0065Z" fill="black"/>
<path opacity="0.1" d="M66 25C65.9535 25.6745 65.8943 26.3412 65.8226 27H64V25H66Z" fill="black"/>
<path opacity="0.1" d="M52 57.7752C51.0092 58.0749 49.9908 58.0749 49 57.7752C49.0448 57.1859 49.0705 56.5934 49.0769 56H51.9231C51.9295 56.5934 51.9552 57.1859 52 57.7752V57.7752Z" fill="black"/>
<path d="M36 20C36.0515 41.01 42.5226 58 50.5 58C58.4774 58 64.9473 41.01 65 20H36Z" fill="#034C8C"/>
<path opacity="0.1" d="M38.611 20H36C36.0522 41.01 42.6101 58 50.6945 58C51.132 57.9989 51.5686 57.9482 52 57.8483C44.5265 56.135 38.6608 39.8667 38.611 20Z" fill="white"/>
<path d="M58 82H43V87H58V82Z" fill="#3F3D56"/>
<path opacity="0.1" d="M43.7013 82.6818H58V82H43V87H43.7013V82.6818Z" fill="white"/>
<path d="M26.8753 40.1438C26.5947 40.0171 24.9426 38.2458 24.8175 37.4441C24.6923 36.6424 25.6909 29.1736 25.6909 29.1736C25.6909 29.1736 25.5986 29.1736 25.4479 29.1489V29.0287L25.6532 19.2174C25.6532 19.2174 26.4951 12.6326 24.9049 13.0161C23.3148 13.3997 24.3121 19.2174 24.3121 19.2174C24.3121 19.2174 24.1311 22.1706 24.0036 23.0563C23.8821 23.9107 23.3257 27.3907 23.7047 28.4723C23.7186 28.5107 23.734 28.5481 23.7509 28.5842V28.5842C23.7509 28.5842 23.8141 32.2964 23.1277 32.8034C22.473 33.2858 22.2008 35.7139 22.1778 35.9312L22.1425 35.9114C21.947 35.7457 21.7754 35.5332 21.636 35.2842C21.6214 35.2596 21.6105 35.2332 21.5971 35.2069C22.044 34.5255 22.2849 33.6407 22.2716 32.7293C22.2583 31.8178 21.9919 30.9466 21.5254 30.2897C21.3085 29.9844 21.0541 29.7326 20.7735 29.5456C20.7653 29.231 20.7104 28.922 20.6119 28.6369C20.2961 27.7216 18.5468 26.5248 17.3041 26.4968C16.7307 26.4738 16.2606 26.6944 16.0893 27.3018C16.0019 27.6097 16.0286 27.9603 15.9922 28.2797C15.9193 28.9382 15.6071 29.4534 15.2062 29.8633C15.0443 29.6184 14.8693 29.3901 14.6826 29.1801C14.2769 28.7587 13.4679 27.3693 13.4679 27.3693C13.4679 27.3693 10.9423 23.8251 10.7553 22.8538C10.5682 21.8825 8.04512 16.0501 7.48389 17.0658C6.92267 18.0815 9.41659 22.5081 9.41659 22.5081C9.41659 22.5081 9.89035 24.1164 10.2548 24.6597C10.6192 25.2029 13.4132 30.7012 13.4132 30.7012L13.5468 31.0766C12.9564 31.498 12.4171 32.0346 12.2264 32.8709C11.947 34.1023 12.558 35.3402 12.9807 36.4926C13.8043 38.7413 13.9222 41.6089 12.8593 43.6634C11.9069 45.4775 10.2548 46.3401 8.70838 47.0941C9.45521 47.8888 10.383 48.3062 11.3323 48.2744C10.9751 49.677 9.70935 50.1412 8.63064 50.4013C9.19672 51.1388 10.007 51.4071 10.7844 51.5701C11.1652 51.6579 11.551 51.6992 11.9372 51.6935H12.032L12.1267 51.6837C12.2584 51.6718 12.3894 51.6493 12.5191 51.6162C13.0803 51.4614 13.6258 51.0466 13.9125 50.3749C14.1554 49.8004 14.2404 49.0168 14.6814 48.7287C14.7962 48.6585 14.92 48.6188 15.0458 48.6119H15.0325C15.1151 48.6119 15.2001 48.6119 15.2827 48.6119L17.1207 48.6366C17.1972 48.6366 17.2762 48.6366 17.3551 48.6366C17.8738 48.6201 18.4278 48.4983 18.6914 47.9172C18.7998 47.635 18.8569 47.3217 18.8578 47.0035C18.8967 46.215 18.8578 45.4034 18.8736 44.6083C19.0303 46.0553 19.1943 48.3106 18.8043 49.1436C18.4875 49.7748 18.1036 50.3389 17.6649 50.8178C17.5545 50.9434 17.4536 51.0834 17.3636 51.2359C17.3041 51.2935 17.2689 51.3248 17.2689 51.3248L17.2312 51.4779C17.0928 51.7624 16.9924 52.0779 16.9348 52.4096C16.9136 52.4949 16.9057 52.5851 16.9117 52.6747C16.9542 52.7916 16.608 53.2739 16.7089 53.4764C15.8439 54.8509 15.68 56.9334 15.68 56.9334L14.1008 60.183C13.2893 63.0721 12.0745 63.3684 12.0745 63.3684C12.0745 63.3684 9.22102 60.774 9.14327 60.6472C9.06553 60.5205 7.97466 59.8867 7.97466 59.8867C7.84604 59.581 7.64969 59.338 7.41344 59.192C7.03929 58.9813 7.0077 58.2043 7.0077 58.2043C6.96154 56.3687 6.16587 56.2288 6.16587 56.2288C5.52447 56.1547 5.03491 56.3095 4.65834 56.5926L4.54415 56.6041C3.99264 56.6651 3.32938 56.7326 2.60052 56.7984C0.573062 56.9795 0.0907981 58.759 0.0907981 58.759C0.0907981 58.759 -0.15823 59.1393 0.168543 59.5508C0.495317 59.9624 2.58715 59.5508 2.67583 59.541C2.51641 59.5644 2.35519 59.5493 2.19964 59.4965C2.52884 59.4801 2.98195 59.4636 3.36825 59.4636H3.46179C3.43747 59.7411 3.4257 60.0204 3.42656 60.2999C3.42656 60.8266 4.50163 61.1641 4.50163 61.1641L7.77544 65.115C7.77544 65.115 9.83326 66.3612 11.1428 68.1539C12.4523 69.9466 13.61 68.3992 13.61 68.3992C14.996 67.9349 18.9841 61.4012 18.9878 61.3946C18.9878 61.5856 19.0716 67.9399 19.2307 69.2157C19.2371 69.2804 19.2489 69.3439 19.266 69.405C19.453 69.9532 19.2028 71.4512 19.0947 72.0834C19.0257 72.6124 18.9992 73.15 19.0157 73.6867C19.0157 73.6867 17.5203 81.4239 17.6442 82.1038C17.7681 82.7836 16.834 85.9427 16.834 85.9427V88.5766L16.9968 88.5651C16.9756 88.6075 16.9561 88.6515 16.9385 88.6968L16.9275 88.7248C16.9275 88.7248 17.9249 89.0194 18.5954 88.9355C19.266 88.8515 20.4176 89.6351 20.4176 89.6351C20.4176 89.6351 20.8075 89.8853 22.0077 89.9907C23.2079 90.096 23.2079 89.2729 23.2079 89.2729C23.0706 88.1519 21.1744 87.7766 21.1161 87.765C20.963 87.635 20.8196 87.4934 20.7018 87.3716L20.6775 87.3453C20.6855 87.3206 20.6924 87.2953 20.6982 87.2695C20.901 86.1501 19.7786 85.6645 19.7786 85.6645V85.3912C20.5075 84.8842 20.652 81.4041 20.652 81.4041C20.652 81.4041 21.7453 77.101 21.8984 76.3832C22.0514 75.6655 21.8984 74.5905 21.8984 74.5905L22.0077 73.662C22.0077 73.662 22.2421 73.0299 22.2421 72.9032C22.2725 72.5819 22.3637 72.2768 22.507 72.0175C22.6782 71.7426 22.3199 71.0891 22.3199 71.0891L22.6321 69.9927V68.7893L23.361 64.4236C23.361 64.4236 24.125 59.3385 23.8602 57.6742C23.5954 56.0099 24.1724 55.1637 24.1724 55.1637C24.1204 55.2008 24.0669 55.2338 24.0121 55.2625C24.085 55.034 24.1479 54.7998 24.2004 54.5612L25.8403 54.8361V54.8691H26.4319C26.4319 54.8691 26.2448 51.7413 26.2448 50.4803C26.2448 49.2193 26.8753 44.6939 26.8753 44.6939C26.8753 44.6939 27.1559 40.2706 26.8753 40.1438ZM19.5952 36.4926C19.5952 36.616 19.5867 36.7444 19.5806 36.8761L19.5478 36.9436L19.487 36.8745L19.4129 37.0309L19.3911 37.0457C19.2307 36.9337 19.1481 36.2934 19.0327 36.4316L19.0169 36.4498C18.9914 36.4102 18.9659 36.3987 18.9392 36.4316L18.9149 36.4596C18.9149 36.4119 18.9149 36.3625 18.9149 36.3131C19.1371 36.3906 19.3657 36.4299 19.5952 36.43C19.5964 36.4514 19.5952 36.4728 19.5952 36.4926ZM25.0495 51.0581H25.0847L25.0264 51.2655C25.0337 51.1964 25.041 51.1289 25.0495 51.0581V51.0581ZM19.0619 88.3889L18.8384 88.3132L18.9598 88.2852L19.0728 88.3856L19.0862 88.3988L19.0619 88.3889ZM21.3456 87.9461C21.2715 87.8934 21.1962 87.8325 21.1233 87.77C21.1476 87.7881 21.2436 87.8556 21.3456 87.9461V87.9461Z" fill="url(#paint1_linear_69_2)"/>
<path d="M26 48L24.822 53.1139H25.108L24 54.5852L26 55V48Z" fill="#F86D70"/>
<path opacity="0.1" d="M26 48L24.822 53.1139L24.5253 52.981L24 54.5852L26 55V48Z" fill="black"/>
<path d="M24 51H26.1945L27 41H24V51Z" fill="#F86D70"/>
<path opacity="0.1" d="M24 51H26.1945L27 41H24V51Z" fill="black"/>
<path d="M19.2482 44L19.7745 43.879L20.9836 43.5983C20.9836 43.5983 24.615 42.4791 25.3647 42.3879C25.8188 42.306 26.2616 42.1334 26.6791 41.8757C26.8755 41.7599 27 41.6722 27 41.6722L25.692 38.4076L23.6626 36.3517C23.6626 36.3517 22.3789 35.9781 21.836 34.9572C21.7148 34.7375 21.6359 34.4797 21.6065 34.2076C21.5771 33.9354 21.5982 33.6576 21.6678 33.3994C21.999 31.9961 19.6897 34.7414 19.6897 34.7414C19.6897 34.7414 19.7116 35.3992 19.6897 36.2377C19.6897 36.4026 19.6782 36.5745 19.6692 36.7499C19.6692 36.8657 19.6576 36.9815 19.6487 37.1008C19.5922 37.934 19.4767 38.7918 19.2482 39.304C18.6898 40.5565 19.2482 44 19.2482 44Z" fill="#FBBEBE"/>
<path opacity="0.1" d="M20 37H20.0478C20.1338 37 20.2031 36.7513 20.2867 36.74C20.9594 36.6522 21.5735 36.4604 22 35.8119C21.8875 35.6085 21.8143 35.37 21.7869 35.1182C21.7596 34.8663 21.779 34.6092 21.8435 34.3703C22.1517 33.07 20.0024 35.612 20.0024 35.612C20.0024 35.612 20.0251 36.2231 20 37Z" fill="black"/>
<path d="M17 32.4996C16.9999 32.9594 17.0644 33.4146 17.19 33.8394C17.3156 34.2642 17.4997 34.6502 17.7319 34.9752C17.9641 35.3003 18.2397 35.5581 18.5431 35.734C18.8465 35.9098 19.1717 36.0002 19.5 36C19.5821 36 19.6631 36 19.7441 35.984C20.2258 35.9179 20.6834 35.6573 21.0614 35.2341C21.4394 34.8108 21.7216 34.243 21.8735 33.5995C22.0255 32.9561 22.0409 32.2647 21.9176 31.6094C21.7944 30.954 21.538 30.3628 21.1795 29.9075C20.8209 29.4522 20.3757 29.1525 19.8978 29.0446C19.42 28.9368 18.93 29.0255 18.4875 29.2999C18.0449 29.5744 17.6688 30.0229 17.4048 30.5908C17.1407 31.1588 17.0001 31.8219 17 32.4996Z" fill="#FBBEBE"/>
<path d="M16.3807 26.8326C16.2935 27.1501 16.3201 27.5052 16.285 27.8415C16.1555 29.0552 15.2805 29.7825 14.4889 30.2912C13.6973 30.7999 12.8041 31.4025 12.5524 32.5753C12.2764 33.8437 12.8791 35.1155 13.2979 36.3053C14.1137 38.6236 14.2299 41.5803 13.1769 43.7005C12.2413 45.5783 10.611 46.4694 9.07625 47.2512C9.81488 48.0708 10.7329 48.5018 11.6724 48.4701C11.3202 49.916 10.0675 50.3957 9 50.662C9.56039 51.4234 10.3628 51.7 11.1314 51.8673C11.6918 51.9902 12.2667 52.0704 12.8259 51.9116C13.3851 51.7529 13.9152 51.3244 14.2033 50.6313C14.4453 50.0389 14.5276 49.2315 14.9646 48.9327C15.1618 48.8232 15.3743 48.7794 15.5855 48.8047L17.401 48.832C17.9662 48.832 18.6355 48.7706 18.9272 48.0894C19.0348 47.7985 19.0913 47.4753 19.0918 47.1471C19.1705 45.4673 18.9417 43.6919 19.4319 42.159C19.5796 41.6963 18.6319 40.964 18.7311 40.474C19.0725 38.7891 19.1584 37.4627 19.1548 35.7095C19.1548 34.3524 19.7805 33.183 20.2973 32.0376C20.8141 30.8921 21.2462 29.4462 20.8383 28.2171C20.3784 26.8463 16.9241 24.8541 16.3807 26.8326Z" fill="#3F3D56"/>
<path d="M19 88.3953L19.3849 88.5922L19.4444 88.6226L19.4555 88.628L19.912 88.8615L20.9781 89L21.9153 88.9502C21.9153 88.9502 22.1853 88.5144 21.7611 88.5245C21.6252 88.5191 21.4928 88.4896 21.3741 88.4381L21.3157 88.4156C21.2542 88.3907 21.1928 88.3626 21.1323 88.3331C21.0063 88.2716 20.8874 88.2047 20.7917 88.1479C20.6506 88.0638 20.5569 88 20.5569 88L19 88.3953Z" fill="#FBBEBE"/>
<path opacity="0.1" d="M19 88.2742L19.0682 88.3283L19.0809 88.3379L19.6046 88.7535L20.8277 89L21.9028 88.9114C21.9028 88.9114 22.2126 88.1357 21.7259 88.1537C21.5701 88.1442 21.4181 88.0915 21.282 88C21.3676 88.0803 21.4392 88.1676 21.4462 88.241C21.4658 88.4391 20.6508 88.795 20.6508 88.795L19.5017 88.4308C19.5017 88.4308 19.3063 88.3643 19.0393 88.2812L19.0139 88.2729L19 88.2742Z" fill="black"/>
<path d="M17 88.8624C17 88.8624 17.9521 89.1262 18.5923 89.0506C19.2325 88.975 20.3353 89.6745 20.3353 89.6745C20.3353 89.6745 20.7079 89.8967 21.854 89.9916C23 90.0864 23 89.3485 23 89.3485C22.8692 88.3453 21.0584 88.0148 21.0023 88C21.0245 88.0148 21.1192 88.0756 21.215 88.1571C21.3435 88.2638 21.4825 88.4031 21.493 88.5157C21.5129 88.7261 20.6893 89.1084 20.6893 89.1084L19.528 88.7202C19.528 88.7202 19.3306 88.6476 19.0608 88.5586H19.035C18.6349 88.4204 18.2284 88.314 17.8178 88.2401C17.3178 88.1719 17.0619 88.7113 17.0093 88.8328C17.0055 88.8423 17.0024 88.8522 17 88.8624V88.8624Z" fill="#3F3D56"/>
<path d="M1 59.3166L1.58297 59.9895C1.58297 59.9895 1.75261 59.9773 2.00572 59.9652H2.0865C2.44867 59.9449 2.94817 59.9246 3.37227 59.9246C3.64642 59.9061 3.92112 59.9292 4.19219 59.9936C4.483 60.1476 5 57.4884 5 57.4884L4.41569 57.2858L4.22181 57.2169L4.08718 57.1682L3.61192 57L2.17132 57.2473L1.15887 58.2282L1 59.3166Z" fill="#FBBEBE"/>
<path opacity="0.1" d="M1 59.3247L1.51364 60C1.51364 60 1.66311 59.9878 1.88612 59.9756C1.78378 59.9079 1.69941 59.7784 1.64887 59.6115C1.31673 58.0312 2.96441 57.3559 2.96441 57.3559L3.73191 57.299L3.88138 57.2868H4L3.82918 57.2176L3.71056 57.1688L3.29181 57L2.02254 57.2481L1.13049 58.2325L1 59.3247Z" fill="black"/>
<path d="M0.165314 59.8389C0.477865 60.2021 2.52496 59.8389 2.61085 59.8299C2.45549 59.852 2.29824 59.8382 2.14679 59.7894C2.07181 59.7725 2.00077 59.7348 1.93886 59.679C1.87694 59.6232 1.82572 59.5507 1.78891 59.4668C1.45489 58.2994 3.11188 57.8028 3.11188 57.8028L3.88372 57.7607L4.03284 57.7517L5.90934 57.6497L6 57C6 57 5.39041 57.072 4.43366 57.1681C3.89565 57.2236 3.24072 57.2851 2.53331 57.3436C0.5566 57.5087 0.0865793 59.1217 0.0865793 59.1217C0.0865793 59.1217 -0.153202 59.4668 0.165314 59.8389Z" fill="#3F3D56"/>
<path d="M24.1136 28.772C24.125 28.8121 24.1385 28.8505 24.154 28.8867L24.5603 29.8313L25.6173 30L25.629 29.3354L25.8066 19.3363C25.8066 19.3363 26.5382 12.6298 25.1558 13.0161C23.7734 13.4023 24.6411 19.3363 24.6411 19.3363C24.6411 19.3363 24.4837 22.3455 24.3731 23.2496C24.2657 24.1233 23.784 27.6757 24.1136 28.772Z" fill="#FBBEBE"/>
<path d="M21 53.5485L21.3796 54.2123L22.2287 55.6974C22.2287 55.6974 23.7686 56.2747 24.163 55.8345C24.3789 55.5945 24.6123 54.7567 24.776 54.0518C24.9101 53.4813 25 53 25 53L21 53.5485Z" fill="#FBBEBE"/>
<path opacity="0.1" d="M21 53.4494L21.3796 54C21.4034 53.9826 21.425 53.9632 21.444 53.942C21.8732 53.4778 23.7632 53.843 24.776 53.8726C24.9101 53.3993 25 53 25 53L21 53.4494Z" fill="black"/>
<path opacity="0.1" d="M4 59.9405C4.17862 59.9259 4.3576 59.9441 4.53421 59.9949C4.72368 60.1164 5.06053 58.0186 5.06053 58.0186L4.55351 57.8011L5.93333 57.6924L6 57C6 57 5.55175 57.0768 4.84825 57.1791C4.70288 57.3317 4.57317 57.5291 4.46491 57.7627L4.44386 57.8107C4.15 58.4679 4.04123 59.3153 4 59.9405Z" fill="black"/>
<path opacity="0.1" d="M19 88.6368L19.498 89C20.2409 88.852 20.9196 88.6194 20.9997 88.2537C21.0001 88.2479 21.0001 88.2421 20.9997 88.2363C20.8416 88.102 20.7366 88 20.7366 88L19 88.6368Z" fill="black"/>
<path opacity="0.1" d="M17 89C17.6702 88.929 18.338 88.7764 19 88.543C18.6046 88.312 18.2028 88.134 17.797 88.0098C17.3045 87.8968 17.0519 88.7912 17 89Z" fill="black"/>
<path d="M4 61.0204C4 61.5426 5.08794 61.8766 5.08794 61.8766L8.40125 65.7778C8.40125 65.7778 10.4831 67.0089 11.8074 68.7819C13.1317 70.5549 14.3001 69.0324 14.3001 69.0324C15.7037 68.574 19.746 62.1058 19.746 62.1058C19.746 62.1058 19.84 69.4924 20.0294 70.0343C20.2188 70.5761 19.9663 72.0577 19.8561 72.6847C19.7866 73.2076 19.7601 73.739 19.7769 74.2694C19.7769 74.2694 18.2632 81.9261 18.3895 82.594C18.5157 83.262 17.5689 86.3921 17.5689 86.3921V89C17.5689 89 21.2758 88.8117 21.48 87.7067C21.6842 86.6017 20.5505 86.1203 20.5505 86.1203V85.8486C21.2931 85.3476 21.433 81.9065 21.433 81.9065C21.433 81.9065 22.5382 77.65 22.6954 76.9412C22.8526 76.2323 22.6954 75.1665 22.6954 75.1665L22.8056 74.2498C22.8056 74.2498 23.042 73.6228 23.042 73.4984C23.0729 73.1806 23.1654 72.8789 23.3105 72.6225C23.4838 72.3508 23.1212 71.7041 23.1212 71.7041L23.4368 70.6187V69.4302L24.1794 65.1115C24.1794 65.1115 24.953 60.0824 24.6844 58.4338C24.4158 56.7852 25 55.952 25 55.952C23.7338 56.8295 23.0952 54.8764 22.886 54.0366C22.8328 53.8205 22.8068 53.6764 22.8068 53.6764C22.8068 53.6764 21.0678 52.8284 19.4489 53.0314C19.1201 53.0666 18.7961 53.1574 18.4848 53.3015C16.6864 54.1577 16.403 57.7037 16.403 57.7037L14.81 60.9173C13.9895 63.7756 12.7592 64.0671 12.7592 64.0671C12.7592 64.0671 9.87287 61.5017 9.78871 61.3757C9.70455 61.2496 8.60547 60.6242 8.60547 60.6242C8.47552 60.3217 8.27672 60.0811 8.03737 59.9367C7.65863 59.7271 7.62769 58.9544 7.62769 58.9544C7.58066 57.1389 6.77616 56.9899 6.77616 56.9899C3.98391 56.6821 4 60.4998 4 61.0204Z" fill="#3F3D56"/>
<path d="M19 50H21V43H19V50Z" fill="#F86D70"/>
<path opacity="0.1" d="M19 50H21V43H19V50Z" fill="black"/>
<path opacity="0.1" d="M24.0002 29C23.9999 29.0041 23.9999 29.0081 24.0002 29.0122C24.0152 29.0444 24.033 29.0753 24.0536 29.1045L24.5896 29.8643L25.9846 30L26 29.4654C25.565 29.4328 24.5742 29.3175 24.0002 29Z" fill="black"/>
<path d="M23.6361 29C23.6361 29 23.7008 32.6712 22.9888 33.1723C22.2767 33.6734 22 36.2835 22 36.2835C22 36.2835 24.1578 38.1142 24.6388 38.9199C25.1199 39.7255 26.2242 41.6447 25.997 42.1032C25.7698 42.5617 26.5479 44.6494 26.5479 44.6494C26.5479 44.6494 25.1237 48.4058 25.4474 49.8255C25.771 51.2452 25.8028 55 25.8028 55H26.4184C26.4184 55 26.2242 51.9117 26.2242 50.659C26.2242 49.4063 26.8703 44.9409 26.8703 44.9409C26.8703 44.9409 27.1622 40.559 26.8703 40.4346C26.5783 40.3101 24.8648 38.5564 24.7353 37.7622C24.6058 36.968 25.6416 29.5748 25.6416 29.5748C25.6416 29.5748 24.3152 29.5011 23.6361 29Z" fill="#F86D70"/>
<path opacity="0.1" d="M19 42.5146C19.057 43.0448 19.1962 43.5516 19.4081 44L20.5625 43.7281C20.5625 43.7281 24.0294 42.6437 24.7451 42.5553C25.1787 42.476 25.6015 42.3087 26 42.0591C25.7253 40.7091 25.1891 39.4894 24.4498 38.5324L24.0098 37.9664C23.3615 37.1317 22.6101 36.4656 21.7917 36C21.8431 36.0595 25.4804 40.3663 24.6838 41.211C23.8873 42.0557 21.7426 39.9991 21.7426 39.9991L19.3039 37.0928L19.2157 36.9875L19.0748 37.2917C19.1465 37.3326 19.2164 37.3791 19.2843 37.4311C20.1155 38.0638 20.7323 39.1269 21 40.3884C21.5012 42.7253 19 42.5146 19 42.5146Z" fill="black"/>
<path d="M19 53.3699C19 53.3699 20.939 54.4029 21.4099 53.8236C21.5127 53.6961 21.7296 53.6407 22 53.6259C21.9558 53.4954 21.9342 53.4084 21.9342 53.4084C21.9342 53.4084 20.4897 52.8964 19.145 53.019C19.0565 53.2325 19 53.3699 19 53.3699Z" fill="#444053"/>
<path d="M19.9604 36.9699L22.242 39.9365C22.242 39.9365 24.1705 41.9666 24.8975 41.1288C25.6244 40.291 22.2851 36 22.2851 36C23.0225 36.4595 23.7002 37.1128 24.2867 37.9298L24.6839 38.4867C25.7284 39.9499 25.9641 39.9499 25.9995 42.1004C26.0084 42.6305 25.8889 43.3914 25.797 43.5285C25.4585 44.0302 25.2217 47.6741 25.2737 48.1005C25.3257 48.5269 24.643 52.2076 24.8643 53.231C25.0856 54.2545 22.0981 52.7193 21.5925 53.7009C21.0868 54.6826 19 52.9334 19 52.9334C19 52.9334 20.1563 48.4567 20.4384 48.159C20.7206 47.8614 21.0591 45.5587 20.4384 44.4934C19.8177 43.4282 19.7624 42.4048 19.7624 42.4048C19.7624 42.4048 22.0196 42.6155 21.567 40.3161C21.4397 39.6496 21.2188 39.0325 20.9194 38.5067C20.62 37.9809 20.2491 37.5588 19.8321 37.2692L19.9604 36.9699Z" fill="#E8E8F0"/>
<path opacity="0.1" d="M22.9978 44C22.9978 44 21.89 47.0577 20.4571 47.8513C20.4109 47.8759 20.3661 47.8985 20.3171 47.919C18.8212 48.5855 23.1099 44.9475 22.9978 44Z" fill="black"/>
<path d="M9.17579 22.5678C9.17579 22.5678 9.67982 24.1752 10.0836 24.7243C10.4873 25.2734 13.4798 30.7708 13.4798 30.7708L13.7332 31.4343L13.9509 32L15.8681 31.7462L16 30.7741L15.9261 30.6613C15.7335 30.371 15.2083 29.5914 14.856 29.2513C14.4193 28.8299 13.5445 27.4348 13.5445 27.4348C13.5445 27.4348 10.8211 23.8816 10.6193 22.9095C10.4174 21.9374 7.69272 16.1082 7.08841 17.1168C6.4841 18.1254 9.17579 22.5678 9.17579 22.5678Z" fill="#FBBEBE"/>
<g opacity="0.1">
<path opacity="0.1" d="M14.5933 48.731C14.378 48.7059 14.1613 48.748 13.96 48.8538C13.5156 49.1442 13.4317 49.9291 13.1848 50.5049C12.8959 51.1786 12.3453 51.5951 11.7787 51.7495C11.6661 51.7788 11.5523 51.7999 11.438 51.8125C11.7989 51.8597 12.1629 51.8385 12.5194 51.7495C13.086 51.5951 13.6366 51.1786 13.9255 50.5049C14.1724 49.9291 14.2563 49.1442 14.7007 48.8538C14.8174 48.7832 14.9432 48.7437 15.0711 48.7376L14.5933 48.731Z" fill="black"/>
<path opacity="0.1" d="M18.9781 36.0015C18.9781 34.6822 19.6164 33.5455 20.1423 32.432C20.6681 31.3186 21.1101 29.913 20.6941 28.7182C20.3385 27.6977 18.1955 26.3286 16.9585 26.5991C18.1696 26.8099 19.662 27.8819 19.9534 28.7182C20.3694 29.913 19.9275 31.3186 19.4016 32.432C18.8757 33.5455 18.235 34.6822 18.2375 36.0015C18.2375 37.704 18.1523 38.9884 17.8042 40.6329C17.7042 41.1059 18.6683 41.8211 18.5201 42.2691C18.0189 43.7626 18.2535 45.4851 18.1733 47.118C18.1716 47.437 18.1136 47.751 18.0041 48.034C17.7572 48.58 17.2511 48.721 16.7585 48.7509H17.1894C17.7646 48.7509 18.4473 48.6911 18.7448 48.029C18.8543 47.746 18.9123 47.432 18.9139 47.113C18.9942 45.4801 18.7596 43.756 19.2608 42.2642C19.4114 41.8161 18.4448 41.1026 18.5448 40.628C18.893 38.9951 18.9806 37.704 18.9781 36.0015Z" fill="black"/>
</g>
<path opacity="0.1" d="M13 31.5774L13.2881 32L15.8254 31.8104L16 31.0843L15.9022 31C15.6315 31.0942 13.6042 31.7869 13 31.5774Z" fill="black"/>
<path opacity="0.1" d="M20 37.9541C20 37.9541 19.5269 37.0337 19.2565 37.2835C18.9862 37.5333 18.8815 36.5291 18.7264 36.6967C18.5714 36.8644 18.1195 37.3312 17.9313 36.6787C17.7842 36.1593 16.1833 32.8737 15.5339 31.5523C15.3669 31.2104 15.2622 31 15.2622 31C15.2622 31 13.4387 32.1308 13 31.7544V32.5499L13.3711 32.5927L15.359 37.1948C15.359 37.1948 15.9845 38.4291 15.9421 38.8597C15.8997 39.2904 16.7438 41.1756 16.879 41.3005C17.0142 41.4254 18.4693 43.521 18.4693 43.521C18.4693 43.521 19.2128 48.0459 18.5701 49.3033C17.9273 50.5606 16.8141 51.481 16.8141 51.481C16.8141 51.481 16.4788 52.6957 16.5278 52.8222C16.5769 52.9488 16.1382 53.4928 16.341 53.6605C16.5437 53.8281 16.8141 55 16.8141 55C16.8141 55 17.7603 53.1148 18.2719 52.8222C18.7834 52.5297 19.4381 48.6737 19.4381 48.6737C19.4381 48.6737 19.625 46.4023 19.6395 44.9362C19.6541 43.4701 19.5945 37.9541 20 37.9541Z" fill="black"/>
<path d="M20 37.9513C20 37.9513 19.5282 37.0312 19.2579 37.2809C18.9875 37.5307 18.8815 36.5268 18.7278 36.6944C18.574 36.862 18.1221 37.3286 17.9326 36.6763C17.7842 36.1572 16.1833 32.8729 15.5352 31.552L15.2635 31C15.2635 31 13.44 32.1303 13 31.7541V32.5493L13.3724 32.592L15.3603 37.1922C15.3603 37.1922 15.9871 38.4261 15.9434 38.8565C15.8997 39.287 16.7385 41.1714 16.8803 41.2963C17.0221 41.4211 18.4707 43.5159 18.4707 43.5159C18.4707 43.5159 19.2141 48.0389 18.5727 49.2957C18.2339 49.927 17.8217 50.4928 17.3495 50.9748C16.9529 51.3804 16.6737 51.9353 16.5543 52.5553C16.5313 52.6398 16.5232 52.7294 16.5305 52.8182C16.5795 52.943 16.1409 53.4885 16.3436 53.6561C16.5464 53.8237 16.8194 55 16.8194 55C16.8194 55 17.7656 53.1156 18.2772 52.8231C18.7887 52.5307 19.4447 48.6763 19.4447 48.6763C19.4447 48.6763 19.6303 46.4058 19.6462 44.9403C19.6621 43.4748 19.6024 37.9513 20 37.9513Z" fill="#F86D70"/>
<path opacity="0.1" d="M16.155 57C16.155 57 17.4227 57.3445 17.9304 57.8769C18.4382 58.4092 16 57.0431 16 57.0431L16.155 57Z" fill="black"/>
<path opacity="0.1" d="M19 62C19 62 20.1871 63.3781 19.9745 64.623C19.762 65.8678 19.2136 69 19.2136 69L19 62Z" fill="black"/>
<path opacity="0.1" d="M7 58C7 58 4.86829 58.7911 5.00644 59.7294C5.14458 60.6677 7 58.8647 7 58.8647V58Z" fill="black"/>
<path opacity="0.1" d="M21.9918 71.9019C21.9918 71.9019 22.1174 72.1226 21.3843 71.9019C20.6513 71.6812 21.1923 71 21.1923 71L21.9918 71.9019Z" fill="black"/>
<path opacity="0.1" d="M22 74.5C22 74.5 20.7691 75.625 20.1091 74.5C19.449 73.375 22 74.5 22 74.5Z" fill="black"/>
<path opacity="0.1" d="M20 58L19 61C19 61 19.5382 58.3731 20 58Z" fill="black"/>
<path opacity="0.1" d="M18 37C18 37 17.9406 37.9543 17.0546 38.3264C16.1686 38.6985 16 39 16 39" fill="black"/>
<path opacity="0.1" d="M16 32C16 32 15.0214 33.2229 14 32.964Z" fill="black"/>
<path opacity="0.1" d="M17 52.9716C17 52.9716 17.294 53.2596 18 52Z" fill="black"/>
<path opacity="0.1" d="M24.9946 41C25.0264 40.8482 24.9124 40.7075 24.8049 40.5887L24.5848 40.3439C24.5418 40.2938 24.4934 40.2479 24.4403 40.2069C24.3077 40.1126 24.1379 40.0845 24 40" fill="black"/>
<defs>
<linearGradient id="paint0_linear_69_2" x1="80.9991" y1="67.0086" x2="80.9991" y2="0.0188145" gradientUnits="userSpaceOnUse">
<stop stop-color="#808080" stop-opacity="0.25"/>
<stop offset="0.54" stop-color="#808080" stop-opacity="0.12"/>
<stop offset="1" stop-color="#808080" stop-opacity="0.1"/>
</linearGradient>
<linearGradient id="paint1_linear_69_2" x1="4822.74" y1="41235" x2="10822.7" y2="41235" gradientUnits="userSpaceOnUse">
<stop stop-color="#808080" stop-opacity="0.25"/>
<stop offset="0.54" stop-color="#808080" stop-opacity="0.12"/>
<stop offset="1" stop-color="#808080" stop-opacity="0.1"/>
</linearGradient>
</defs>
</svg>
