<svg width="101" height="90" viewBox="0 0 101 90" fill="none" xmlns="http://www.w3.org/2000/svg">
<path d="M98.4979 62.5583C98.4139 62.4156 98.3513 62.2464 98.3145 62.0625C98.2777 61.8786 98.2675 61.6845 98.2848 61.4939C98.302 61.3033 98.3462 61.1209 98.4142 60.9594C98.4823 60.7979 98.5725 60.6614 98.6785 60.5593L98 56L99.4802 56.8516L99.8976 61.0507C99.9973 61.3361 100.025 61.6678 99.9766 61.9829C99.9279 62.2981 99.8057 62.5748 99.6332 62.7606C99.4606 62.9465 99.2498 63.0285 99.0405 62.9912C98.8313 62.9539 98.6382 62.7999 98.4979 62.5583Z" fill="#FFB8B8"/>
<path d="M97.9008 58L96 54.3048L96.2571 45L96.3792 45.2588C96.5215 45.5603 99.8567 52.6598 99.6188 55.0365L100 57.2085L97.9008 58Z" fill="#3F3D56"/>
<path d="M96.0004 88H98.0331L99 82L96 82.0001L96.0004 88Z" fill="#FFB8B8"/>
<path d="M96 88.0001L99.0538 88H99.054C99.5701 88 100.065 88.2041 100.43 88.5673C100.795 88.9305 101 89.4231 101 89.9368V89.9998L96.0001 90L96 88.0001Z" fill="#2F2E41"/>
<path d="M82 87.5293L83.5696 88L86 81.6947L83.6833 81L82 87.5293Z" fill="#FFB8B8"/>
<path d="M81.5487 87L84.5477 87.7493L84.5479 87.7494C85.0547 87.876 85.4848 88.1784 85.7435 88.59C86.0023 89.0016 86.0684 89.4887 85.9275 89.9442L85.9102 90L81 88.7732L81.5487 87Z" fill="#2F2E41"/>
<path d="M94.9106 85L91.8414 62.1315L85.2123 84.8707L80 83.0185L87.4706 52.5701L87.5197 52.5665L95.3458 52L101 83.1517L94.9106 85Z" fill="#2F2E41"/>
<path d="M93.9171 40.155C93.9171 40.155 91.3232 38.4686 87.827 39.1713C87.827 39.1713 85.9662 44.7657 87.827 46.9927L88.3345 52.5926C88.3345 52.5926 93.0713 56.106 94.6502 52.0305L94.4246 47.3927C94.4246 47.3927 95.5524 45.1685 94.6502 43.5401C94.1094 42.5454 93.8513 41.3537 93.9171 40.155Z" fill="#034C8C"/>
<path d="M94.9512 65L95.471 53.5961L94 40.0299L94.0675 40.0191C95.9971 39.7114 96.616 43.2264 96.6414 43.3762L100 63.4547L94.9512 65Z" fill="#3F3D56"/>
<path d="M88.6008 65L82 64.3056L82.0017 64.2373C82.0251 63.3122 82.5933 41.5596 84.1852 40.0191C85.7866 38.4693 88.8084 39.1399 88.9363 39.1693L89 39.1839L88.4568 48.3883L88.6008 65Z" fill="#3F3D56"/>
<path d="M90.1094 51.9303C89.9322 51.994 89.7444 52.0144 89.5593 51.99C89.3741 51.9656 89.1961 51.8969 89.0378 51.7889C88.8794 51.6809 88.7446 51.5362 88.6428 51.3649C88.541 51.1936 88.4747 50.9999 88.4486 50.7975L84 49.8421L85.6508 48L89.6222 49.1897C89.9353 49.1641 90.2461 49.2654 90.4957 49.4742C90.7452 49.683 90.9163 49.985 90.9763 50.3228C91.0364 50.6606 90.9813 51.0108 90.8215 51.3071C90.6617 51.6034 90.4084 51.8251 90.1094 51.9303Z" fill="#FFB8B8"/>
<path d="M87.3237 51L86.0049 50.6715C84.0579 51.3499 80.6595 48.9618 79.286 47.901C79.0275 47.7014 78.9437 47.306 79.0368 46.7258C79.1742 45.9143 79.5604 45.1877 80.124 44.6801L84.9614 40.2365L86.1824 40L86.5451 42.3809L83.463 46.216L88 49.0769L87.3237 51Z" fill="#3F3D56"/>
<path d="M87 37.3136V34.1102C87 32.7549 87.4214 31.4551 88.1716 30.4967C88.9217 29.5384 89.9391 29 91 29C92.0609 29 93.0783 29.5384 93.8284 30.4967C94.5786 31.4551 95 32.7549 95 34.1102V37.3136C94.9998 37.4956 94.9432 37.67 94.8425 37.7987C94.7417 37.9274 94.6051 37.9998 94.4627 38H87.5373C87.3949 37.9998 87.2583 37.9274 87.1576 37.7987C87.0568 37.67 87.0002 37.4956 87 37.3136Z" fill="#2F2E41"/>
<path d="M91 38C92.6569 38 94 36.2091 94 34C94 31.7909 92.6569 30 91 30C89.3431 30 88 31.7909 88 34C88 36.2091 89.3431 38 91 38Z" fill="#FFB8B8"/>
<path d="M88.0698 34.8575C88.043 34.8127 88.0231 34.7601 88.0116 34.7033C88 34.6465 87.9971 34.5867 88.0029 34.5281L88.3355 31.1797C88.3421 31.1116 88.3603 31.0469 88.3885 30.9916C88.4168 30.9362 88.4541 30.8919 88.4972 30.8626C90.1946 29.7139 91.9159 29.7125 93.6134 30.8582C93.6584 30.8891 93.6972 30.9363 93.7258 30.9953C93.7544 31.0543 93.7719 31.123 93.7767 31.1947L93.9987 34.5474C94.0025 34.6048 93.998 34.6626 93.9854 34.7172C93.9728 34.7719 93.9525 34.8221 93.9257 34.8647C93.8989 34.9074 93.8663 34.9414 93.8299 34.9647C93.7934 34.988 93.754 35 93.7142 35H93.1512C93.0969 34.9998 93.0437 34.9773 92.9978 34.9351C92.952 34.8929 92.9154 34.8327 92.8923 34.7616L92.6493 34.0089C92.6336 33.9601 92.6073 33.9201 92.5745 33.8948C92.5416 33.8696 92.504 33.8604 92.4673 33.8688C92.4305 33.8771 92.3966 33.9026 92.3708 33.9412C92.3449 33.9798 92.3284 34.0296 92.3238 34.0829L92.2758 34.638C92.2671 34.7379 92.2335 34.8298 92.1813 34.8964C92.1291 34.963 92.0619 34.9999 91.9922 35H88.2858C88.2448 35 88.2043 34.9873 88.1671 34.9627C88.1298 34.9381 88.0966 34.9022 88.0698 34.8575Z" fill="#2F2E41"/>
<path d="M74 6H0V57H74V6Z" fill="#E6E6E6"/>
<path d="M19 16H5V26H19V16Z" fill="white"/>
<path d="M35 16H22V26H35V16Z" fill="white"/>
<path d="M52 16H38V26H52V16Z" fill="white"/>
<path d="M68 16H56V26H68V16Z" fill="white"/>
<path d="M19 29H5V39H19V29Z" fill="white"/>
<path d="M35 29H22V39H35V29Z" fill="white"/>
<path d="M52 29H38V39H52V29Z" fill="white"/>
<path d="M68 29H56V39H68V29Z" fill="white"/>
<path d="M19 44H5V53H19V44Z" fill="white"/>
<path d="M35 44H22V53H35V44Z" fill="white"/>
<path d="M52 44H38V53H52V44Z" fill="white"/>
<path d="M68 44H56V53H68V44Z" fill="white"/>
<path d="M19 12C20.1046 12 21 11.1046 21 10C21 8.89543 20.1046 8 19 8C17.8954 8 17 8.89543 17 10C17 11.1046 17.8954 12 19 12Z" fill="white"/>
<path d="M53 12C54.1046 12 55 11.1046 55 10C55 8.89543 54.1046 8 53 8C51.8954 8 51 8.89543 51 10C51 11.1046 51.8954 12 53 12Z" fill="white"/>
<path d="M20 0H19V10H20V0Z" fill="#E6E6E6"/>
<path d="M53 0H52V10H53V0Z" fill="#E6E6E6"/>
<path d="M66 20.5033C65.9992 21.3462 65.6943 22.1605 65.1412 22.7965C64.5882 23.4326 63.8242 23.8477 62.9896 23.9656C62.155 24.0835 61.3059 23.8962 60.5983 23.4383C59.8907 22.9803 59.3721 22.2824 59.1379 21.4727C58.9036 20.663 58.9694 19.796 59.3232 19.031C59.677 18.266 60.2949 17.6543 61.0635 17.3084C61.8322 16.9624 62.6998 16.9055 63.507 17.148C64.3142 17.3905 65.0068 17.9162 65.4576 18.6284C65.8125 19.1893 66.0006 19.8396 66 20.5033Z" fill="#034C8C"/>
<path d="M64 19.3943L61.8769 22C61.7434 21.7464 61 20.5679 61 20.5679C61.0953 20.4497 61.1969 20.3395 61.3043 20.2381L61.9208 21.2471L63.7514 19C63.8442 19.1215 63.9275 19.2535 64 19.3943Z" fill="white"/>
<path d="M32 33.5033C31.9992 34.3462 31.6943 35.1605 31.1412 35.7965C30.5882 36.4326 29.8241 36.8477 28.9896 36.9656C28.155 37.0835 27.3059 36.8962 26.5983 36.4383C25.8907 35.9803 25.3721 35.2824 25.1379 34.4727C24.9036 33.663 24.9694 32.796 25.3232 32.031C25.677 31.266 26.2949 30.6543 27.0635 30.3084C27.8322 29.9624 28.6998 29.9055 29.507 30.148C30.3142 30.3905 31.0068 30.9162 31.4576 31.6284C31.8125 32.1893 32.0006 32.8396 32 33.5033Z" fill="#034C8C"/>
<path d="M30 32.3943L27.8769 35C27.7434 34.7464 27 33.5679 27 33.5679C27.0953 33.4497 27.1969 33.3395 27.3043 33.2381L27.9208 34.2471L29.7514 32C29.8442 32.1215 29.9275 32.2535 30 32.3943Z" fill="white"/>
<path d="M15 34.5033C14.9992 35.3462 14.6943 36.1605 14.1412 36.7965C13.5882 37.4326 12.8242 37.8477 11.9896 37.9656C11.155 38.0835 10.3059 37.8962 9.59829 37.4383C8.89069 36.9803 8.37213 36.2824 8.13788 35.4727C7.90364 34.663 7.96944 33.796 8.32321 33.031C8.67697 32.266 9.29493 31.6543 10.0635 31.3084C10.8322 30.9624 11.6998 30.9055 12.507 31.148C13.3142 31.3905 14.0069 31.9162 14.4576 32.6284C14.8125 33.1893 15.0006 33.8396 15 34.5033Z" fill="#034C8C"/>
<path d="M13 33.3943L10.8769 36C10.7434 35.7464 10 34.5679 10 34.5679C10.0953 34.4497 10.1969 34.3395 10.3043 34.2381L10.9208 35.2471L12.7514 33C12.8442 33.1215 12.9275 33.2535 13 33.3943Z" fill="white"/>
</svg>
