<svg width="64" height="65" viewBox="0 0 64 65" fill="none" xmlns="http://www.w3.org/2000/svg">
<path d="M32 65C49.6731 65 64 63.8807 64 62.5C64 61.1193 49.6731 60 32 60C14.3269 60 0 61.1193 0 62.5C0 63.8807 14.3269 65 32 65Z" fill="#3F3D56"/>
<path d="M30 56C40.4934 56 49 47.0457 49 36C49 24.9543 40.4934 16 30 16C19.5066 16 11 24.9543 11 36C11 47.0457 19.5066 56 30 56Z" fill="#2F2E41"/>
<path d="M28 51H21V62H28V51Z" fill="#2F2E41"/>
<path d="M39 51H33V62H39V51Z" fill="#2F2E41"/>
<path d="M26.5 63C29.5376 63 32 62.3284 32 61.5C32 60.6716 29.5376 60 26.5 60C23.4624 60 21 60.6716 21 61.5C21 62.3284 23.4624 63 26.5 63Z" fill="#2F2E41"/>
<path d="M38 63C40.7614 63 43 62.3284 43 61.5C43 60.6716 40.7614 60 38 60C35.2386 60 33 60.6716 33 61.5C33 62.3284 35.2386 63 38 63Z" fill="#2F2E41"/>
<path d="M30.5 37C34.0899 37 37 34.0899 37 30.5C37 26.9101 34.0899 24 30.5 24C26.9101 24 24 26.9101 24 30.5C24 34.0899 26.9101 37 30.5 37Z" fill="white"/>
<path d="M30.5 33C31.3284 33 32 31.8807 32 30.5C32 29.1193 31.3284 28 30.5 28C29.6716 28 29 29.1193 29 30.5C29 31.8807 29.6716 33 30.5 33Z" fill="#3F3D56"/>
<path d="M12.2807 16.7245C10.7476 9.48926 15.6483 2.17839 23.2266 0.39518C30.805 -1.38803 38.1912 3.03168 39.7243 10.2669C41.2574 17.5021 36.235 20.1706 28.6566 21.9538C21.0783 23.737 13.8138 23.9597 12.2807 16.7245Z" fill="#04BEC4"/>
</svg>
