<svg width="335" height="191" viewBox="0 0 335 191" fill="none" xmlns="http://www.w3.org/2000/svg">
<g clip-path="url(#clip0_48_2)">
<path d="M282.679 184.152H117.606C117.485 184.152 117.368 184.087 117.282 183.973C117.197 183.858 117.149 183.702 117.149 183.54V39.1959C117.149 39.034 117.197 38.8789 117.283 38.7646C117.369 38.6502 117.485 38.5861 117.606 38.5861C117.727 38.5861 117.843 38.6502 117.929 38.7646C118.014 38.8789 118.063 39.034 118.063 39.1959V182.929H282.679C282.8 182.929 282.916 182.994 283.002 183.108C283.087 183.223 283.135 183.378 283.135 183.54C283.135 183.702 283.087 183.857 283.002 183.972C282.916 184.087 282.8 184.151 282.679 184.152V184.152Z" fill="#3F3D56"/>
<path d="M282.679 155.405H117.606C117.485 155.405 117.369 155.34 117.283 155.225C117.198 155.111 117.15 154.956 117.15 154.794C117.15 154.632 117.198 154.476 117.283 154.362C117.369 154.247 117.485 154.182 117.606 154.182H282.679C282.8 154.182 282.916 154.247 283.002 154.362C283.087 154.476 283.135 154.632 283.135 154.794C283.135 154.956 283.087 155.111 283.002 155.225C282.916 155.34 282.8 155.405 282.679 155.405V155.405Z" fill="#3F3D56"/>
<path d="M282.908 132.163H117.834C117.713 132.163 117.597 132.099 117.511 131.984C117.425 131.87 117.377 131.714 117.377 131.552C117.377 131.39 117.425 131.234 117.511 131.119C117.597 131.005 117.713 130.94 117.834 130.94H282.908C283.029 130.941 283.145 131.005 283.231 131.12C283.316 131.235 283.364 131.39 283.364 131.552C283.364 131.714 283.316 131.869 283.231 131.984C283.145 132.098 283.029 132.163 282.908 132.163V132.163Z" fill="#3F3D56"/>
<path d="M282.908 108.921H117.834C117.713 108.921 117.597 108.856 117.512 108.742C117.427 108.627 117.379 108.472 117.379 108.31C117.379 108.148 117.427 107.993 117.512 107.878C117.597 107.763 117.713 107.699 117.834 107.698H282.908C283.029 107.699 283.145 107.763 283.231 107.878C283.316 107.993 283.364 108.148 283.364 108.31C283.364 108.472 283.316 108.627 283.231 108.742C283.145 108.856 283.029 108.921 282.908 108.921V108.921Z" fill="#3F3D56"/>
<path d="M282.908 85.6796H117.834C117.713 85.6796 117.597 85.6152 117.511 85.5005C117.425 85.3858 117.377 85.2302 117.377 85.068C117.377 84.9058 117.425 84.7502 117.511 84.6355C117.597 84.5208 117.713 84.4564 117.834 84.4564H282.908C283.029 84.4564 283.146 84.5208 283.231 84.6355C283.317 84.7502 283.365 84.9058 283.365 85.068C283.365 85.2302 283.317 85.3858 283.231 85.5005C283.146 85.6152 283.029 85.6796 282.908 85.6796V85.6796Z" fill="#3F3D56"/>
<path d="M282.908 62.4377H117.834C117.713 62.4377 117.597 62.3733 117.511 62.2586C117.425 62.1439 117.377 61.9883 117.377 61.8261C117.377 61.6639 117.425 61.5083 117.511 61.3936C117.597 61.2789 117.713 61.2145 117.834 61.2145H282.908C283.029 61.2145 283.146 61.2789 283.231 61.3936C283.317 61.5083 283.365 61.6639 283.365 61.8261C283.365 61.9883 283.317 62.1439 283.231 62.2586C283.146 62.3733 283.029 62.4377 282.908 62.4377V62.4377Z" fill="#3F3D56"/>
<path d="M282.908 39.1958H117.834C117.713 39.1954 117.597 39.1307 117.512 39.0161C117.427 38.9014 117.379 38.7461 117.379 38.5842C117.379 38.4223 117.427 38.267 117.512 38.1524C117.597 38.0377 117.713 37.9731 117.834 37.9726H282.908C283.029 37.9731 283.145 38.0377 283.231 38.1524C283.316 38.267 283.364 38.4223 283.364 38.5842C283.364 38.7461 283.316 38.9014 283.231 39.0161C283.145 39.1307 283.029 39.1954 282.908 39.1958V39.1958Z" fill="#3F3D56"/>
<path d="M133.803 183.119H128.038C127.33 183.118 126.65 182.741 126.149 182.07C125.648 181.4 125.366 180.491 125.365 179.543V158.278C125.366 157.33 125.648 156.421 126.149 155.751C126.65 155.08 127.33 154.703 128.038 154.702H133.803C134.512 154.703 135.191 155.08 135.692 155.751C136.194 156.421 136.475 157.33 136.476 158.278V179.543C136.475 180.491 136.194 181.4 135.692 182.07C135.191 182.741 134.512 183.118 133.803 183.119V183.119Z" fill="#3F3D56"/>
<path d="M157.809 183.119H152.045C151.336 183.118 150.657 182.741 150.155 182.07C149.654 181.4 149.372 180.491 149.372 179.543V140.273C149.372 139.325 149.654 138.416 150.155 137.745C150.657 137.075 151.336 136.698 152.045 136.697H157.809C158.518 136.698 159.198 137.075 159.699 137.745C160.2 138.416 160.482 139.325 160.483 140.273V179.543C160.482 180.491 160.2 181.4 159.699 182.07C159.198 182.741 158.518 183.118 157.809 183.119V183.119Z" fill="#3F3D56"/>
<path d="M205.822 183.119H200.058C199.349 183.118 198.67 182.741 198.169 182.07C197.667 181.4 197.385 180.491 197.385 179.543V97.9052C197.385 96.9572 197.667 96.0483 198.169 95.3779C198.67 94.7075 199.349 94.3304 200.058 94.3293H205.822C206.531 94.3304 207.211 94.7075 207.712 95.3779C208.213 96.0483 208.495 96.9572 208.496 97.9052V179.543C208.495 180.491 208.213 181.4 207.712 182.07C207.211 182.741 206.531 183.118 205.822 183.119Z" fill="#E6E6E6"/>
<path d="M181.587 183.119H175.823C175.114 183.118 174.435 182.741 173.933 182.07C173.432 181.4 173.15 180.491 173.149 179.543V125.862C173.15 124.914 173.432 124.005 173.933 123.334C174.435 122.664 175.114 122.287 175.823 122.286H181.587C182.296 122.287 182.975 122.664 183.477 123.334C183.978 124.005 184.26 124.914 184.261 125.862V179.543C184.26 180.491 183.978 181.4 183.477 182.07C182.975 182.741 182.296 183.118 181.587 183.119V183.119Z" fill="#3F3D56"/>
<path d="M229.829 183.119H224.065C223.356 183.118 222.676 182.741 222.175 182.07C221.674 181.4 221.392 180.491 221.391 179.543V76.4189C221.392 75.4709 221.674 74.562 222.175 73.8916C222.676 73.2212 223.356 72.8441 224.065 72.8431H229.829C230.538 72.8441 231.217 73.2212 231.718 73.8916C232.22 74.562 232.502 75.4709 232.502 76.4189V179.543C232.502 180.491 232.22 181.4 231.718 182.07C231.217 182.741 230.538 183.118 229.829 183.119V183.119Z" fill="#3F3D56"/>
<path d="M253.836 183.119H248.071C247.362 183.118 246.683 182.741 246.182 182.07C245.68 181.4 245.399 180.491 245.398 179.543V97.9052C245.399 96.9572 245.68 96.0483 246.182 95.3779C246.683 94.7075 247.362 94.3304 248.071 94.3293H253.836C254.544 94.3304 255.224 94.7075 255.725 95.3779C256.226 96.0483 256.508 96.9572 256.509 97.9052V179.543C256.508 180.491 256.226 181.4 255.725 182.07C255.224 182.741 254.544 183.118 253.836 183.119Z" fill="#3F3D56"/>
<path d="M277.842 183.119H272.078C271.369 183.118 270.689 182.741 270.188 182.07C269.687 181.4 269.405 180.491 269.404 179.543V41.457C269.405 40.5089 269.687 39.6 270.188 38.9296C270.689 38.2593 271.369 37.8822 272.078 37.8811H277.842C278.551 37.8822 279.23 38.2593 279.732 38.9296C280.233 39.6 280.515 40.5089 280.515 41.457V179.543C280.515 180.491 280.233 181.4 279.732 182.07C279.23 182.741 278.551 183.118 277.842 183.119Z" fill="#E6E6E6"/>
<path d="M201.365 62.119C210.561 62.119 218.016 52.147 218.016 39.8459C218.016 27.5448 210.561 17.5728 201.365 17.5728C192.168 17.5728 184.713 27.5448 184.713 39.8459C184.713 52.147 192.168 62.119 201.365 62.119Z" fill="#2F2E41"/>
<path d="M195.032 54.4794L186.928 59.908L189.193 65.9582L197.298 60.5297L195.032 54.4794Z" fill="#2F2E41"/>
<path d="M190.262 65.3443C190.742 64.3693 189.556 62.1892 187.612 60.475C185.669 58.7607 183.703 58.1614 183.223 59.1364C182.742 60.1114 183.928 62.2914 185.872 64.0057C187.816 65.7199 189.781 66.3192 190.262 65.3443Z" fill="#2F2E41"/>
<path d="M207.697 54.4795L205.432 60.5298L213.536 65.9583L215.801 59.9081L207.697 54.4795Z" fill="#2F2E41"/>
<path d="M216.857 64.0056C218.801 62.2914 219.987 60.1113 219.506 59.1363C219.026 58.1614 217.06 58.7607 215.117 60.4749C213.173 62.1892 211.987 64.3692 212.467 65.3442C212.948 66.3192 214.913 65.7199 216.857 64.0056Z" fill="#2F2E41"/>
<path d="M200.199 42.0101C203.342 42.0101 205.89 38.6019 205.89 34.3977C205.89 30.1936 203.342 26.7854 200.199 26.7854C197.056 26.7854 194.508 30.1936 194.508 34.3977C194.508 38.6019 197.056 42.0101 200.199 42.0101Z" fill="white"/>
<path d="M201.583 39.3003C202.321 38.3135 202.317 36.7079 201.574 35.7141C200.831 34.7203 199.63 34.7147 198.893 35.7015C198.155 36.6883 198.159 38.2938 198.902 39.2876C199.645 40.2814 200.845 40.2871 201.583 39.3003Z" fill="#3F3D56"/>
<path d="M214.501 15.6151C214.751 7.36926 209.438 0.384972 202.633 0.0152776C195.829 -0.354417 190.11 6.03043 189.859 14.2763C189.609 22.5221 194.339 24.3956 201.143 24.7653C207.948 25.1351 214.25 23.8609 214.501 15.6151Z" fill="#034C8C"/>
<path d="M224.099 51.5089C225.194 50.2512 223.654 45.4484 220.659 40.7816C217.664 36.1149 214.348 33.3513 213.253 34.609C212.157 35.8667 213.697 40.6694 216.693 45.3362C219.688 50.003 223.004 52.7666 224.099 51.5089Z" fill="#2F2E41"/>
<path d="M186.083 45.3361C189.078 40.6694 190.618 35.8666 189.523 34.6089C188.428 33.3512 185.112 36.1148 182.117 40.7816C179.121 45.4484 177.581 50.2511 178.676 51.5088C179.772 52.7665 183.088 50.0029 186.083 45.3361Z" fill="#2F2E41"/>
<path d="M205.938 48.6235C206.027 49.2791 206.019 49.9519 205.914 50.6033C205.809 51.2548 205.609 51.8721 205.325 52.4202C205.042 52.9682 204.68 53.4362 204.262 53.7973C203.843 54.1585 203.375 54.4059 202.885 54.5252C202.395 54.6446 201.892 54.6336 201.405 54.493C200.918 54.3524 200.456 54.0848 200.046 53.7056C199.637 53.3263 199.287 52.8429 199.017 52.2828C198.747 51.7227 198.562 51.097 198.473 50.4413L198.471 50.4315C198.098 47.6735 199.692 46.6976 201.754 46.1983C203.816 45.6991 205.565 45.8655 205.938 48.6235Z" fill="white"/>
<path d="M334.626 165.38C335.761 164.109 334.227 159.16 331.201 154.326C328.175 149.492 324.802 146.603 323.668 147.873C322.533 149.144 324.066 154.093 327.092 158.927C330.118 163.762 333.491 166.651 334.626 165.38Z" fill="#2F2E41"/>
<path d="M327.185 159.882C330.166 147.92 325.332 134.989 316.389 131.002C307.445 127.014 297.778 133.479 294.797 145.442C291.815 157.405 296.649 170.335 305.593 174.323C314.536 178.311 324.204 171.845 327.185 159.882Z" fill="#2F2E41"/>
<path d="M318.216 170.581H313.03V183.009H318.216V170.581Z" fill="#2F2E41"/>
<path d="M307.844 170.581H302.658V183.009H307.844V170.581Z" fill="#2F2E41"/>
<path d="M313.894 185.321C316.281 185.321 318.216 184.351 318.216 183.154C318.216 181.956 316.281 180.986 313.894 180.986C311.508 180.986 309.573 181.956 309.573 183.154C309.573 184.351 311.508 185.321 313.894 185.321Z" fill="#2F2E41"/>
<path d="M303.523 185.032C305.909 185.032 307.844 184.062 307.844 182.865C307.844 181.667 305.909 180.697 303.523 180.697C301.136 180.697 299.201 181.667 299.201 182.865C299.201 184.062 301.136 185.032 303.523 185.032Z" fill="#2F2E41"/>
<path d="M305.631 123.961C307.155 115.751 313.883 110.919 320.659 113.169C327.434 115.42 331.691 123.9 330.167 132.11C328.643 140.321 323.586 140.347 316.81 138.097C310.035 135.847 304.107 132.172 305.631 123.961Z" fill="#CCCCCC"/>
<path d="M299.476 146.96C300.11 145.172 297.171 141.532 292.912 138.83C288.653 136.128 284.687 135.387 284.053 137.176C283.418 138.964 286.357 142.604 290.616 145.306C294.875 148.008 298.842 148.748 299.476 146.96Z" fill="#2F2E41"/>
<path d="M308.439 155.457C311.582 155.457 314.13 152.049 314.13 147.844C314.13 143.64 311.582 140.232 308.439 140.232C305.296 140.232 302.748 143.64 302.748 147.844C302.748 152.049 305.296 155.457 308.439 155.457Z" fill="white"/>
<path d="M306.1 147.653C307.147 147.653 307.997 146.517 307.997 145.116C307.997 143.714 307.147 142.578 306.1 142.578C305.052 142.578 304.203 143.714 304.203 145.116C304.203 146.517 305.052 147.653 306.1 147.653Z" fill="#3F3D56"/>
<path d="M312.009 163.704C312.188 165.028 311.967 166.393 311.395 167.499C310.822 168.605 309.945 169.361 308.955 169.602C307.966 169.843 306.945 169.549 306.118 168.784C305.291 168.019 304.724 166.845 304.543 165.522L304.542 165.512C304.169 162.754 305.763 161.778 307.825 161.279C309.887 160.78 311.636 160.946 312.009 163.704Z" fill="white"/>
<path d="M287.82 191H282.056C281.347 190.999 280.668 190.622 280.166 189.951C279.665 189.281 279.383 188.372 279.383 187.424V49.338C279.383 48.39 279.665 47.481 280.166 46.8107C280.668 46.1403 281.347 45.7632 282.056 45.7621H287.82C288.529 45.7632 289.209 46.1403 289.71 46.8107C290.211 47.481 290.493 48.39 290.494 49.338V187.424C290.493 188.372 290.211 189.281 289.71 189.951C289.209 190.622 288.529 190.999 287.82 191V191Z" fill="#034C8C"/>
<path d="M45.2419 175.495C54.6695 175.495 62.312 165.272 62.312 152.662C62.312 140.052 54.6695 129.83 45.2419 129.83C35.8144 129.83 28.1719 140.052 28.1719 152.662C28.1719 165.272 35.8144 175.495 45.2419 175.495Z" fill="#2F2E41"/>
<path d="M42.649 170.581H37.4631V183.009H42.649V170.581Z" fill="#2F2E41"/>
<path d="M53.0207 170.581H47.8348V183.009H53.0207V170.581Z" fill="#2F2E41"/>
<path d="M41.7847 185.321C44.1714 185.321 46.1062 184.351 46.1062 183.154C46.1062 181.956 44.1714 180.986 41.7847 180.986C39.398 180.986 37.4631 181.956 37.4631 183.154C37.4631 184.351 39.398 185.321 41.7847 185.321Z" fill="#2F2E41"/>
<path d="M52.1564 185.032C54.5431 185.032 56.4779 184.062 56.4779 182.865C56.4779 181.667 54.5431 180.697 52.1564 180.697C49.7697 180.697 47.8348 181.667 47.8348 182.865C47.8348 184.062 49.7697 185.032 52.1564 185.032Z" fill="#2F2E41"/>
<path d="M45.674 154.685C48.8961 154.685 51.5081 151.192 51.5081 146.882C51.5081 142.572 48.8961 139.078 45.674 139.078C42.452 139.078 39.84 142.572 39.84 146.882C39.84 151.192 42.452 154.685 45.674 154.685Z" fill="white"/>
<path d="M45.6741 149.483C46.7481 149.483 47.6188 148.318 47.6188 146.882C47.6188 145.445 46.7481 144.281 45.6741 144.281C44.6 144.281 43.7294 145.445 43.7294 146.882C43.7294 148.318 44.6 149.483 45.6741 149.483Z" fill="#3F3D56"/>
<path d="M28.6834 131.429C27.3051 123.172 31.711 114.829 38.5244 112.794C45.3378 110.759 51.9784 115.803 53.3568 124.06C54.7351 132.316 50.2196 135.361 43.4063 137.396C36.5929 139.431 30.0617 139.685 28.6834 131.429Z" fill="#CCCCCC"/>
<path d="M57.6885 71.0929C59.3715 65.2034 59.6152 59.8562 58.2329 59.1495C56.8507 58.4428 54.3658 62.6443 52.6829 68.5338C50.9999 74.4232 50.7562 79.7704 52.1384 80.4771C53.5207 81.1838 56.0056 76.9823 57.6885 71.0929Z" fill="#2F2E41"/>
<path d="M56.2574 90.7124C57.7676 78.2653 51.4479 66.5374 42.1421 64.5175C32.8363 62.4976 24.0683 70.9506 22.5582 83.3977C21.0481 95.8449 27.3677 107.573 36.6735 109.593C45.9793 111.613 54.7473 103.16 56.2574 90.7124Z" fill="#2F2E41"/>
<path d="M36.8149 104.974H31.629V117.402H36.8149V104.974Z" fill="#2F2E41"/>
<path d="M47.1866 104.974H42.0007V117.402H47.1866V104.974Z" fill="#2F2E41"/>
<path d="M35.9506 119.714C38.3373 119.714 40.2721 118.744 40.2721 117.546C40.2721 116.349 38.3373 115.379 35.9506 115.379C33.5638 115.379 31.629 116.349 31.629 117.546C31.629 118.744 33.5638 119.714 35.9506 119.714Z" fill="#2F2E41"/>
<path d="M46.3223 119.425C48.709 119.425 50.6438 118.455 50.6438 117.257C50.6438 116.06 48.709 115.09 46.3223 115.09C43.9356 115.09 42.0007 116.06 42.0007 117.257C42.0007 118.455 43.9356 119.425 46.3223 119.425Z" fill="#2F2E41"/>
<path d="M40.0113 89.0748C43.232 88.9482 45.7662 85.3534 45.6715 81.0455C45.5769 76.7376 42.8893 73.348 39.6686 73.4746C36.4479 73.6012 33.9138 77.196 34.0084 81.5039C34.103 85.8118 36.7907 89.2014 40.0113 89.0748Z" fill="white"/>
<path d="M39.84 83.8759C40.914 83.8759 41.7847 82.7113 41.7847 81.2747C41.7847 79.8381 40.914 78.6735 39.84 78.6735C38.7659 78.6735 37.8953 79.8381 37.8953 81.2747C37.8953 82.7113 38.7659 83.8759 39.84 83.8759Z" fill="#3F3D56"/>
<path d="M22.8493 65.8215C21.471 57.565 25.8769 49.2221 32.6903 47.1872C39.5036 45.1522 46.1443 50.1959 47.5226 58.4524C48.901 66.7089 44.3855 69.7541 37.5722 71.789C30.7588 73.824 24.2276 74.0781 22.8493 65.8215Z" fill="#034C8C"/>
<path d="M27.8929 81.3529C28.527 79.5646 25.5885 75.9245 21.3295 73.2226C17.0704 70.5207 13.1037 69.7802 12.4696 71.5685C11.8355 73.3569 14.774 76.997 19.0331 79.6989C23.2921 82.4008 27.2588 83.1413 27.8929 81.3529Z" fill="#2F2E41"/>
<path d="M31.0231 95.2921C31.0231 97.5268 35.3249 101.94 40.0983 101.94C44.8717 101.94 49.3474 95.6482 49.3474 93.4135C49.3474 91.1789 44.8717 93.847 40.0983 93.847C35.3249 93.847 31.0231 93.0574 31.0231 95.2921Z" fill="white"/>
<path d="M205.308 122.844L199.714 124.703C199.026 124.931 198.298 124.784 197.691 124.295C197.084 123.806 196.646 123.015 196.475 122.095L181.755 42.8673C181.585 41.947 181.694 40.9739 182.06 40.1617C182.425 39.3494 183.017 38.7643 183.705 38.5346L189.299 36.6751C189.987 36.4475 190.714 36.5942 191.322 37.0831C191.929 37.572 192.366 38.3632 192.538 39.283L207.258 118.511C207.428 119.432 207.318 120.405 206.953 121.217C206.587 122.029 205.996 122.614 205.308 122.844V122.844Z" fill="#034C8C"/>
<path d="M72.3496 82.1613L59.7845 85.4419C59.581 85.496 59.371 85.4872 59.1704 85.4162C58.9699 85.3453 58.784 85.2141 58.6271 85.0325C58.467 84.8488 58.3403 84.6187 58.2568 84.3596C58.1732 84.1005 58.135 83.8193 58.1449 83.5374C58.3593 76.6456 57.3577 69.7831 55.2214 63.505C55.1329 63.2488 55.0894 62.969 55.094 62.6869C55.0986 62.4048 55.1512 62.1279 55.2479 61.8771C55.3423 61.63 55.4776 61.4149 55.6435 61.2482C55.8094 61.0816 56.0015 60.9678 56.2052 60.9155L68.7704 57.6348C69.0916 57.5519 69.4243 57.6241 69.7095 57.8385C69.9946 58.053 70.2136 58.3959 70.3274 58.8061C72.186 65.7124 73.2435 72.9585 73.4631 80.2928C73.4729 80.7301 73.3664 81.158 73.1625 81.5001C72.9586 81.8423 72.6706 82.0766 72.3496 82.1613V82.1613Z" fill="#FF6584"/>
<path d="M17.256 97.5358L4.69088 100.816C4.48739 100.87 4.27737 100.862 4.0768 100.791C3.87623 100.72 3.69042 100.589 3.5335 100.407C3.37337 100.223 3.2467 99.9932 3.16314 99.7341C3.07957 99.475 3.04131 99.1938 3.05127 98.9119C3.26562 92.0201 2.2641 85.1576 0.127742 78.8795C0.0393046 78.6234 -0.00427183 78.3436 0.00033003 78.0615C0.00493189 77.7793 0.0575913 77.5024 0.154298 77.2516C0.248662 77.0045 0.383938 76.7894 0.549833 76.6228C0.715728 76.4561 0.907863 76.3423 1.11161 76.29L13.6767 73.0094C13.9979 72.9264 14.3307 72.9986 14.6158 73.213C14.901 73.4275 15.1199 73.7704 15.2338 74.1806C17.0924 81.0869 18.1499 88.333 18.3695 95.6673C18.3793 96.1047 18.2728 96.5325 18.0689 96.8747C17.865 97.2168 17.5769 97.4511 17.256 97.5358V97.5358Z" fill="#CCCCCC"/>
<path d="M99.4554 44.416C101.863 44.416 103.815 41.805 103.815 38.5842C103.815 35.3635 101.863 32.7525 99.4554 32.7525C97.0475 32.7525 95.0955 35.3635 95.0955 38.5842C95.0955 41.805 97.0475 44.416 99.4554 44.416Z" fill="#E6E6E6"/>
<path d="M99.4554 67.6578C101.863 67.6578 103.815 65.0469 103.815 61.8261C103.815 58.6053 101.863 55.9944 99.4554 55.9944C97.0475 55.9944 95.0955 58.6053 95.0955 61.8261C95.0955 65.0469 97.0475 67.6578 99.4554 67.6578Z" fill="#E6E6E6"/>
<path d="M99.4554 90.8997C101.863 90.8997 103.815 88.2888 103.815 85.068C103.815 81.8472 101.863 79.2363 99.4554 79.2363C97.0475 79.2363 95.0955 81.8472 95.0955 85.068C95.0955 88.2888 97.0475 90.8997 99.4554 90.8997Z" fill="#E6E6E6"/>
<path d="M99.4554 114.142C101.863 114.142 103.815 111.531 103.815 108.31C103.815 105.089 101.863 102.478 99.4554 102.478C97.0475 102.478 95.0955 105.089 95.0955 108.31C95.0955 111.531 97.0475 114.142 99.4554 114.142Z" fill="#E6E6E6"/>
<path d="M99.4554 137.383C101.863 137.383 103.815 134.773 103.815 131.552C103.815 128.331 101.863 125.72 99.4554 125.72C97.0475 125.72 95.0955 128.331 95.0955 131.552C95.0955 134.773 97.0475 137.383 99.4554 137.383Z" fill="#E6E6E6"/>
<path d="M99.4554 160.625C101.863 160.625 103.815 158.014 103.815 154.794C103.815 151.573 101.863 148.962 99.4554 148.962C97.0475 148.962 95.0955 151.573 95.0955 154.794C95.0955 158.014 97.0475 160.625 99.4554 160.625Z" fill="#E6E6E6"/>
</g>
<defs>
<clipPath id="clip0_48_2">
<rect width="335" height="191" fill="white"/>
</clipPath>
</defs>
</svg>
