<svg width="335" height="300" viewBox="0 0 335 300" fill="none" xmlns="http://www.w3.org/2000/svg">
<g clip-path="url(#clip0_6:66)">
<path d="M34.9944 85.1504H27.7307V97.9608H34.9944V85.1504Z" fill="#3F3D56"/>
<path d="M195.923 264.677H188.659V277.488H195.923V264.677Z" fill="#3F3D56"/>
<path d="M305.948 142.7V132.846H296.506V142.7H305.948Z" fill="#3F3D56"/>
<path d="M281.635 275.893C297.481 275.893 310.327 258.466 310.327 236.969C310.327 215.472 297.481 198.045 281.635 198.045C265.789 198.045 252.943 215.472 252.943 236.969C252.943 258.466 265.789 275.893 281.635 275.893Z" fill="#2F2E41"/>
<path d="M292.717 290.272L301.294 288.165L298.512 263.869L289.935 265.975L292.717 290.272Z" fill="#2F2E41"/>
<path d="M275.562 291.036L284.14 288.929L281.358 268.082L272.78 270.188L275.562 291.036Z" fill="#2F2E41"/>
<path d="M280.116 295.423C283.177 291.906 284.87 287.792 283.898 286.235C282.926 284.677 279.656 286.266 276.595 289.783C273.533 293.3 271.84 297.414 272.812 298.972C273.784 300.529 277.054 298.94 280.116 295.423Z" fill="#2F2E41"/>
<path d="M296.912 294.747C299.974 291.23 301.667 287.116 300.695 285.558C299.723 284.001 296.453 285.59 293.392 289.107C290.33 292.624 288.637 296.738 289.609 298.295C290.581 299.853 293.851 298.264 296.912 294.747Z" fill="#2F2E41"/>
<path d="M279.626 240.751C285.042 240.751 289.432 234.795 289.432 227.448C289.432 220.101 285.042 214.145 279.626 214.145C274.211 214.145 269.82 220.101 269.82 227.448C269.82 234.795 274.211 240.751 279.626 240.751Z" fill="white"/>
<path d="M275.596 227.114C277.401 227.114 278.865 225.129 278.865 222.679C278.865 220.23 277.401 218.245 275.596 218.245C273.791 218.245 272.327 220.23 272.327 222.679C272.327 225.129 273.791 227.114 275.596 227.114Z" fill="#3F3D56"/>
<path d="M304.269 194.624C304.7 180.214 295.546 168.008 283.821 167.362C272.097 166.716 262.242 177.874 261.811 192.284C261.379 206.694 269.529 209.968 281.254 210.615C292.978 211.261 303.837 209.034 304.269 194.624Z" fill="#04BEC4"/>
<path d="M269.125 234.226C269.681 230.937 263.871 226.324 256.148 223.922C248.425 221.521 241.714 222.24 241.159 225.529C240.603 228.818 246.413 233.431 254.136 235.833C261.859 238.234 268.57 237.515 269.125 234.226Z" fill="#2F2E41"/>
<path d="M325.446 246.932C326.002 243.643 320.192 239.03 312.469 236.629C304.747 234.227 298.036 234.947 297.48 238.236C296.924 241.525 302.734 246.138 310.457 248.539C318.18 250.941 324.891 250.221 325.446 246.932Z" fill="#2F2E41"/>
<path d="M289.515 252.308C289.669 253.455 289.654 254.631 289.473 255.77C289.291 256.909 288.946 257.988 288.457 258.945C287.967 259.903 287.344 260.721 286.622 261.351C285.9 261.982 285.093 262.413 284.248 262.621C283.403 262.829 282.536 262.808 281.696 262.561C280.857 262.314 280.062 261.845 279.356 261.18C278.651 260.516 278.048 259.67 277.584 258.69C277.119 257.709 276.802 256.615 276.65 255.468C276.006 250.648 278.753 248.943 282.306 248.07C285.859 247.198 288.872 247.489 289.515 252.308Z" fill="white"/>
<path d="M132.509 262.753L131.511 280.345L141.153 281.698L138.826 260.498L132.509 262.753Z" fill="#FFB9B9"/>
<path d="M98.9135 102.554H98.9135C107.133 105.99 111.517 118.806 108.706 131.18L105.135 146.902L101.571 145.412L100.83 138.724L100.023 144.765L77.114 135.188L76.441 129.108L75.7071 134.6L73.1278 133.521L75.9318 121.177C79.1663 106.938 89.4556 98.5996 98.9135 102.554Z" fill="#2F2E41"/>
<path d="M86.1482 149.741C85.4053 149.573 84.6447 149.619 83.9155 149.874C83.1863 150.13 82.5046 150.59 81.9142 151.224C81.3238 151.858 80.8378 152.653 80.4874 153.557C80.1371 154.462 79.9301 155.456 79.8799 156.475C79.7366 159.201 80.4301 162.392 83.5447 164.755C90.1973 169.803 104.624 180.807 104.624 180.807L132.149 187.978C132.149 187.978 146.059 203.035 147.801 194.471C149.544 185.907 134.603 180.678 134.603 180.678L109.315 171.88L93.202 156.069C93.202 156.069 90.2493 150.722 86.1482 149.741Z" fill="#FFB9B9"/>
<path d="M77.3507 184.826L80.1171 195.403L96.7169 189.943L92.441 182.096L77.3507 184.826Z" fill="#FFB9B9"/>
<path d="M32.9587 284.287L20.3834 282.581L29.1862 270.98L35.4741 276.78L32.9587 284.287Z" fill="#FFB9B9"/>
<path d="M96.0063 137.953C101.71 137.953 106.335 131.68 106.335 123.941C106.335 116.203 101.71 109.93 96.0063 109.93C90.3021 109.93 85.6779 116.203 85.6779 123.941C85.6779 131.68 90.3021 137.953 96.0063 137.953Z" fill="#FFB9B9"/>
<path d="M87.914 126.138C87.914 126.138 82.1292 135.351 79.1111 136.715C76.093 138.08 68.5476 151.046 72.3203 159.576C76.093 168.106 89.9261 157.529 89.9261 157.529L89.423 148.999C89.423 148.999 95.2078 135.351 96.4653 134.327C97.7229 133.303 87.914 126.138 87.914 126.138Z" fill="#FFB9B9"/>
<path d="M86.9084 142.612C83.0629 134.757 74.1428 136.162 71.9303 145.101C71.8909 145.26 71.8532 145.422 71.8173 145.587C69.8052 154.799 72.8233 170.495 72.8233 170.495L77.3505 188.92C77.3505 188.92 89.1715 181.413 97.7229 194.038L96.4654 181.072C96.4654 181.072 99.9865 170.154 95.4593 162.306C92.5781 157.311 89.9007 148.724 86.9084 142.612Z" fill="#575A89"/>
<path d="M27.4256 281.898L26.9225 287.016C26.9225 287.016 10.3228 282.581 6.80166 286.675C3.2805 290.77 3.28051 293.499 0.513884 290.77C-0.661931 289.61 0.342854 286.785 1.88711 283.921C4.33273 279.427 7.54666 275.807 11.2523 273.372C15.4032 270.615 21.1378 266.609 21.1378 265.52C21.1378 263.814 25.665 258.696 27.4256 261.426C29.1862 264.156 32.4558 271.662 32.4558 271.662L27.4256 281.898Z" fill="#2F2E41"/>
<path d="M130.956 272.226C130.956 272.226 127.269 289.958 128.61 290.867C129.951 291.777 132.632 294.505 136.654 294.505C139.03 294.505 142.577 296.251 145.081 297.68C148 299.372 151.171 300.112 154.34 299.841C156.451 299.643 158.245 298.972 158.103 297.233C157.768 293.141 151.4 292.231 151.4 292.231L144.697 280.41C144.697 280.41 143.524 272.908 142.519 272.908C141.971 272.943 141.433 272.7 141.01 272.226L130.956 272.226Z" fill="#2F2E41"/>
<path d="M93.2809 106.957C94.2934 105.952 95.4629 105.276 96.6989 104.983C97.9348 104.691 99.2039 104.788 100.408 105.268L100.7 105.39C106.333 107.745 109.329 116.57 107.391 125.1V125.1L105.504 124.311L105.914 121.036L104.752 123.997L93.5567 119.317L93.2237 116.262L92.8532 119.023L90.6508 118.102C88.0503 124.596 87.9541 132.138 90.3624 140.726L86.6106 139.158L85.9446 133.047L85.2037 138.57L78.052 135.58L79.4277 122.741C81.5117 113.567 87.2082 107.43 93.2809 106.957Z" fill="#2F2E41"/>
<path d="M224.97 23.9068H139.518V240.873H224.97V23.9068Z" fill="#F2F2F2"/>
<path d="M245.585 241.324H139.186V0H245.585V241.324ZM139.851 240.422H244.92V0.902144H139.851V240.422Z" fill="#3F3D56"/>
<path d="M335 298.989H14.6363V300H335V298.989Z" fill="#3F3D56"/>
<path d="M232.617 126.751H152.153V26.6133H232.617V126.751ZM152.818 125.849H231.952V27.5154H152.818V125.849Z" fill="#3F3D56"/>
<path d="M152.721 100.201L152.251 99.5629L177.328 65.5417L192.053 85.517L231.883 31.4817L232.354 32.1195L192.053 86.7926L177.328 66.8173L152.721 100.201Z" fill="#3F3D56"/>
<path d="M177.423 73.0737C180.177 73.0737 182.41 70.0444 182.41 66.3076C182.41 62.5708 180.177 59.5415 177.423 59.5415C174.668 59.5415 172.435 62.5708 172.435 66.3076C172.435 70.0444 174.668 73.0737 177.423 73.0737Z" fill="#04BEC4"/>
<path d="M192.385 91.5677C195.14 91.5677 197.373 88.5384 197.373 84.8016C197.373 81.0648 195.14 78.0355 192.385 78.0355C189.631 78.0355 187.398 81.0648 187.398 84.8016C187.398 88.5384 189.631 91.5677 192.385 91.5677Z" fill="#04BEC4"/>
<path d="M232.285 38.3411C235.039 38.3411 237.272 35.3118 237.272 31.575C237.272 27.8382 235.039 24.809 232.285 24.809C229.53 24.809 227.297 27.8382 227.297 31.575C227.297 35.3118 229.53 38.3411 232.285 38.3411Z" fill="#04BEC4"/>
<path d="M222.642 154.718H162.128V162.837H222.642V154.718Z" fill="#3F3D56"/>
<path d="M206.35 221.476H178.42V183.586H197.373V184.489H179.085V220.574H205.685V202.531H206.35V221.476Z" fill="#3F3D56"/>
<path d="M192.241 211.594L186.334 200.908L188.462 198.742L192.529 206.099L211.228 180.732L213.109 183.283L192.241 211.594Z" fill="#04BEC4"/>
<path d="M97.8486 194.891C97.8486 194.891 91.8124 183.972 79.4883 190.455L77.2247 198.985C77.2247 198.985 64.1462 212.975 71.44 234.471L70.937 266.544L68.9249 275.757L32.4558 271.662L31.1982 287.358L37.7375 288.04C37.7375 288.04 74.7096 307.83 80.4944 295.547C86.2792 283.263 98.3517 234.812 98.3517 234.812L129.667 241.173C129.667 241.173 128.75 254.469 129.756 256.175C130.762 257.881 130.259 265.046 130.762 266.411C131.265 267.776 130.846 271.324 130.846 271.324L141.236 270.858V264.034C141.236 264.034 142.494 254.822 142.494 252.433C142.494 250.045 150.039 218.654 136.961 215.924C123.882 213.195 101.37 208.198 101.37 208.198L97.8486 194.891Z" fill="#2F2E41"/>
<path d="M86.0977 141.558C85.7798 140.459 85.2958 139.463 84.677 138.633C84.0582 137.803 83.3182 137.159 82.5046 136.74C81.691 136.321 80.8219 136.138 79.953 136.203C79.0842 136.267 78.235 136.578 77.4599 137.114C75.3822 138.537 73.4601 141.36 73.5779 146.952C73.8294 158.894 74.3324 184.825 74.3324 184.825L85.3989 226.111C85.3989 226.111 82.6323 253.749 89.9261 251.019C97.2199 248.29 92.1897 225.088 92.1897 225.088L83.6383 185.849L85.6504 154.799C85.6504 154.799 87.81 147.658 86.0977 141.558Z" fill="#FFB9B9"/>
</g>
<defs>
<clipPath id="clip0_6:66">
<rect width="335" height="300" fill="white"/>
</clipPath>
</defs>
</svg>
