<svg width="49" height="47" viewBox="0 0 49 47" fill="none" xmlns="http://www.w3.org/2000/svg">
<path d="M49 23.5C49.0083 28.4839 47.356 33.34 44.2844 37.3597C43.9344 37.8191 43.5678 38.2679 43.1828 38.7008C42.0955 39.93 40.8795 41.0491 39.5541 42.0403C39.4214 42.1392 39.287 42.2382 39.1507 42.3353C38.6533 42.6923 38.1419 43.0309 37.6162 43.3513C37.456 43.4485 37.2957 43.5439 37.1337 43.6358C36.7671 43.8496 36.3938 44.0534 36.0137 44.2471C35.8276 44.3426 35.6398 44.4362 35.4519 44.5263C31.5909 46.3741 27.2899 47.2117 22.9834 46.9545C18.6769 46.6974 14.5175 45.3545 10.9253 43.0615C10.7337 42.9414 10.5458 42.8177 10.3598 42.6905C10.0098 42.4537 9.66535 42.2064 9.3301 41.9519C9.02064 41.7187 8.71856 41.4766 8.42198 41.2292C6.86063 39.9269 5.47734 38.4403 4.30505 36.8049C4.07664 36.4851 3.8556 36.16 3.64192 35.8295C1.65497 32.7365 0.442685 29.2436 0.100307 25.6254C-0.242071 22.0071 0.294778 18.3619 1.66868 14.9763C3.04259 11.5906 5.21613 8.55653 8.01859 6.11248C10.821 3.66843 14.1761 1.88091 17.8202 0.890349C21.4643 -0.100212 25.2981 -0.266846 29.0207 0.403536C32.7432 1.07392 36.2531 2.56306 39.2744 4.75399C42.2958 6.94492 44.7465 9.77797 46.434 13.0306C48.1215 16.2832 48.9998 19.8669 49 23.5Z" fill="#3F3D56"/>
<path d="M23.5 22C27.0898 22 30 19.3137 30 16C30 12.6863 27.0898 10 23.5 10C19.9101 10 17 12.6863 17 16C17 19.3137 19.9101 22 23.5 22Z" fill="#A0616A"/>
<path d="M18.569 19.5079C18.569 19.5079 20.8552 24.0794 17.7117 25.8571C14.5683 27.6349 22.8555 35 22.8555 35L32 26.3651C32 26.3651 27.142 23.5714 27.9993 19L18.569 19.5079Z" fill="#A0616A"/>
<path d="M36.9638 43.643C37.1232 43.5514 37.2808 43.4562 37.4384 43.3592L37.4438 43.2887L37.5272 42.9695L41 29.7145L30.4728 25L24.317 28.6496L18.8025 25.3403C18.8025 25.3403 15.5634 25.4549 14.7428 26.2536C14.0996 26.8795 10.9457 28.3199 9.60507 28.9159C9.23188 29.0816 9 29.1821 9 29.1821C9 29.1821 9.20652 35.2225 9.61957 41.9628C9.94928 42.2167 10.288 42.4635 10.6322 42.6998C10.8152 42.8267 11 42.9502 11.1884 43.07C14.7212 45.358 18.812 46.698 23.0473 46.9546C27.2827 47.2113 31.5126 46.3755 35.3098 44.5317L36.9638 43.643Z" fill="white"/>
<path d="M11 29V43C10.8159 42.8814 10.6353 42.7593 10.4565 42.6338C10.1201 42.4001 9.78906 42.156 9.46686 41.9048C9.16944 41.6746 8.87911 41.4357 8.59408 41.1916C7.09348 39.9062 5.76401 38.439 4.63733 36.8249C4.41781 36.5092 4.20536 36.1883 4 35.8622C4.17349 35.3007 4.36823 34.6805 4.58422 34.0015C5.92084 29.79 8.8614 29 8.8614 29H11Z" fill="white"/>
<path d="M37.5232 44.1163C37.6701 44.0251 37.8152 43.9305 37.9604 43.834C38.4359 43.5167 38.8991 43.1806 39.3502 42.8258C39.4736 42.7294 39.5954 42.6312 39.7155 42.533C40.9161 41.5494 42.0174 40.439 43.0023 39.2192C43.351 38.7896 43.683 38.3442 44 37.8884C42.9739 34.5184 41.2405 30.2648 41.2405 30.2648L37.7135 30C37.7135 30 36.282 42.0421 36 45L37.5232 44.1163Z" fill="white"/>
<path d="M19.4323 8.69621C19.1077 8.9787 18.769 9.24373 18.4175 9.49021C17.9742 9.86626 17.5648 10.2821 17.194 10.7329L16.7757 11.2118C16.4197 11.6193 16.042 12.0845 16.057 12.6307C16.0626 12.8334 16.1235 13.0301 16.1473 13.2314C16.242 14.0299 15.7647 14.9075 16.1576 15.6043C16.2712 15.8058 16.4469 15.9633 16.5721 16.1574C16.7314 16.4062 16.802 16.7036 16.772 16.9994C17.1942 17.0171 17.5405 16.6302 17.6729 16.2199C17.8054 15.8096 17.7875 15.3663 17.8519 14.9392C17.9164 14.5122 18.0976 14.06 18.477 13.8699C19.2867 13.4643 20.2165 14.5189 21.0807 14.2561C21.6841 14.0726 22.0023 13.3077 22.6192 13.1795C23.0608 13.0877 23.4859 13.3559 23.8963 13.5461C24.3067 13.7362 24.86 13.8242 25.1502 13.4718C25.3423 13.2384 25.3628 12.8645 25.6177 12.7059C25.9231 12.5159 26.3056 12.7805 26.5368 13.0593C26.7681 13.3381 27.0235 13.679 27.3809 13.6689C27.855 13.6554 28.2182 13.0098 28.6682 13.163C29.1761 13.3359 28.9425 14.167 29.2507 14.6146C29.5113 14.993 30.0569 14.9707 30.5054 14.9082C30.581 14.916 30.6573 14.9041 30.7272 14.8736C30.7971 14.843 30.8583 14.7949 30.905 14.7336C30.9518 14.6723 30.9825 14.5999 30.9944 14.5231C31.0064 14.4463 30.999 14.3677 30.9732 14.2946L30.7859 11.7548C30.785 11.5797 30.7476 11.4069 30.676 11.2479C30.5456 11.0063 30.2755 10.8839 30.0919 10.6818C29.7058 10.2566 29.7243 9.51138 29.2442 9.20225C28.9949 9.04173 28.6688 9.04655 28.4212 8.88321C28.1038 8.67373 28.0015 8.25419 27.7791 7.94186C27.4612 7.49535 26.9054 7.28833 26.3681 7.23153C25.8309 7.17472 25.2886 7.24323 24.7487 7.22523C23.6511 7.18861 22.5535 6.87273 21.4505 7.05764C20.4881 7.21898 20.0841 8.05395 19.4323 8.69621Z" fill="#2F2E41"/>
</svg>
